<?xml version="1.0" encoding="UTF-8" standalone="no"?>
<svg
   xmlns:dc="http://purl.org/dc/elements/1.1/"
   xmlns:cc="http://creativecommons.org/ns#"
   xmlns:rdf="http://www.w3.org/1999/02/22-rdf-syntax-ns#"
   xmlns:svg="http://www.w3.org/2000/svg"
   xmlns="http://www.w3.org/2000/svg"
   viewBox="0 0 150.22099 130.58723"
   height="130.58723"
   width="150.22099"
   id="svg2"
   version="1.1">
  <metadata
     id="metadata8">
    <rdf:RDF>
      <cc:Work
         rdf:about="">
        <dc:format>image/svg+xml</dc:format>
        <dc:type
           rdf:resource="http://purl.org/dc/dcmitype/StillImage" />
        <dc:title></dc:title>
      </cc:Work>
    </rdf:RDF>
  </metadata>
  <defs
     id="defs6" />
  <path
     transform="translate(-98.423509,-66.961156)"
     id="path821"
     d="m 129.92599,83.403501 c -8.15763,-0.06798 -16.31625,-0.135969 -21.21141,0.237713 -4.89517,0.373681 -6.52669,1.189442 -6.83291,6.496002 -0.30622,5.30656 0.71286,15.089694 2.61663,27.396334 1.90378,12.30664 4.69106,27.12679 6.56086,34.97989 1.8698,7.8531 2.82159,8.73691 4.30892,9.79927 1.48732,1.06236 3.51006,2.3032 7.66575,3.11048 4.15569,0.80728 10.4455,1.18127 19.8607,1.36821 9.41521,0.18694 21.96036,0.18694 32.0777,0.18694 10.11735,0 17.80999,0 21.86699,-0.78929 4.057,-0.78929 4.47977,-2.36711 6.9779,-16.31727 2.49813,-13.95015 7.07865,-40.3124 8.38171,-53.600386 1.30305,-13.287986 -0.7636,-13.534016 -8.21795,-13.654256 -7.45435,-0.120239 -20.33294,-0.120239 -33.21807,-0.120239"
     style="fill:none;fill-opacity:1;stroke:#7fafdf;stroke-width:6.80000019;stroke-linecap:butt;stroke-linejoin:miter;stroke-miterlimit:4;stroke-dasharray:none;stroke-opacity:1" />
  <path
     d="m 42.577877,27.43945 a 11.105351,11.105351 0 0 1 -9.617516,-5.552675 11.105351,11.105351 0 0 1 0,-11.105352 11.105351,11.105351 0 0 1 9.617516,-5.5526756"
     id="path825"
     style="opacity:1;fill:#7fafdf;fill-opacity:1;fill-rule:evenodd;stroke:#7fafdf;stroke-width:1.80200005;stroke-linecap:round;stroke-linejoin:round;stroke-miterlimit:4;stroke-dasharray:none;stroke-dashoffset:0;stroke-opacity:1;paint-order:stroke fill markers" />
  <rect
     y="6.2440648"
     x="42.516613"
     height="20.192579"
     width="5.9149981"
     id="rect829"
     style="opacity:1;fill:#7fafdf;fill-opacity:1;fill-rule:evenodd;stroke:#7fafdf;stroke-width:1.80200005;stroke-linecap:round;stroke-linejoin:round;stroke-miterlimit:4;stroke-dasharray:none;stroke-dashoffset:0;stroke-opacity:1;paint-order:stroke fill markers" />
  <path
     transform="translate(-98.423509,-66.961156)"
     id="path831"
     d="m 146.75314,77.080572 c 3.46841,0 6.93582,0 10.40224,0"
     style="fill:#7fafdf;fill-opacity:1;stroke:#7fafdf;stroke-width:2.5;stroke-linecap:round;stroke-linejoin:miter;stroke-miterlimit:4;stroke-dasharray:none;stroke-opacity:1" />
  <path
     transform="translate(-98.423509,-66.961156)"
     id="path835"
     d="m 146.85512,89.216516 c 3.50241,0 7.00381,0 10.50422,0"
     style="fill:#7fafdf;fill-opacity:1;stroke:#7fafdf;stroke-width:2.5;stroke-linecap:round;stroke-linejoin:miter;stroke-miterlimit:4;stroke-dasharray:none;stroke-opacity:1" />
  <path
     transform="scale(-1,1)"
     d="m -77.012504,26.833814 a 11.105351,11.105351 0 0 1 -9.617517,-5.552676 11.105351,11.105351 0 0 1 0,-11.105352 11.105351,11.105351 0 0 1 9.617517,-5.5526752"
     id="path825-3"
     style="opacity:1;fill:#7fafdf;fill-opacity:1;fill-rule:evenodd;stroke:#7fafdf;stroke-width:1.80200005;stroke-linecap:round;stroke-linejoin:round;stroke-miterlimit:4;stroke-dasharray:none;stroke-dashoffset:0;stroke-opacity:1;paint-order:stroke fill markers" />
  <rect
     transform="scale(-1,1)"
     y="5.6384282"
     x="-77.073769"
     height="20.192579"
     width="5.9149981"
     id="rect829-4"
     style="opacity:1;fill:#7fafdf;fill-opacity:1;fill-rule:evenodd;stroke:#7fafdf;stroke-width:1.80200005;stroke-linecap:round;stroke-linejoin:round;stroke-miterlimit:4;stroke-dasharray:none;stroke-dashoffset:0;stroke-opacity:1;paint-order:stroke fill markers" />
  <path
     transform="translate(-98.423509,-66.961156)"
     id="path857"
     d="m 166.33382,71.369539 c 0,7.681699 0,15.364397 0,23.048095"
     style="fill:#7fafdf;fill-opacity:1;stroke:#7fafdf;stroke-width:2.5;stroke-linecap:round;stroke-linejoin:round;stroke-miterlimit:4;stroke-dasharray:none;stroke-opacity:1" />
  <path
     transform="translate(-98.423509,-66.961156)"
     id="path861"
     d="m 248.6445,70.38197 c -8.74867,0 -17.49834,0 -22.10096,-0.01196 -4.60261,-0.01196 -5.06054,-0.03606 -5.81868,0.132345 -0.75815,0.168406 -1.81362,0.528225 -2.75204,2.837877 -0.93841,2.309652 -1.75476,6.559466 -2.71815,10.757305 -0.96339,4.19784 -2.07239,8.336665 -3.182,12.477794"
     style="fill:none;fill-opacity:1;stroke:#7fafdf;stroke-width:6.80000019;stroke-linecap:butt;stroke-linejoin:miter;stroke-miterlimit:4;stroke-dasharray:none;stroke-opacity:1" />
  <path
     transform="translate(-98.423509,-66.961156)"
     id="path865"
     d="m 114.22648,183.02197 c 25.19236,0 50.38372,0 63.67654,-0.14434 13.29282,-0.14434 14.68706,-0.4328 15.93624,-1.82643 1.24918,-1.39362 2.35583,-3.89561 3.3476,-6.78399 0.99178,-2.88839 1.8947,-6.25815 2.78487,-9.5803"
     style="fill:none;fill-opacity:1;stroke:#7fafdf;stroke-width:6.80000019;stroke-linecap:butt;stroke-linejoin:miter;stroke-miterlimit:4;stroke-dasharray:none;stroke-opacity:1" />
  <circle
     r="5.9149981"
     cy="123.11629"
     cx="33.134212"
     id="path871"
     style="opacity:1;fill:#7fafdf;fill-opacity:1;fill-rule:evenodd;stroke:#7fafdf;stroke-width:2.5;stroke-linejoin:round;stroke-miterlimit:4;stroke-dasharray:none;stroke-dashoffset:0;stroke-opacity:1;paint-order:stroke fill markers" />
  <circle
     r="5.9149981"
     cy="123.42223"
     cx="83.921593"
     id="path871-3"
     style="opacity:1;fill:#7fafdf;fill-opacity:1;fill-rule:evenodd;stroke:#7fafdf;stroke-width:2.5;stroke-linejoin:round;stroke-miterlimit:4;stroke-dasharray:none;stroke-dashoffset:0;stroke-opacity:1;paint-order:stroke fill markers" />
  <text
     id="text1241"
     y="64.495117"
     x="15.824565"
     style="font-style:normal;font-variant:normal;font-weight:normal;font-stretch:normal;font-size:52.24003983px;line-height:1.25;font-family:'OCR A Extended';-inkscape-font-specification:'OCR A Extended, Normal';font-variant-ligatures:normal;font-variant-caps:normal;font-variant-numeric:normal;font-feature-settings:normal;text-align:start;letter-spacing:0px;word-spacing:0px;writing-mode:lr-tb;text-anchor:start;fill:#0d1f22;fill-opacity:1;stroke:#0d1f22;stroke-width:0.39180031;stroke-opacity:1"
     xml:space="preserve"><tspan
       style="stroke-width:0.39180031"
       y="64.495117"
       x="15.824565"
       id="tspan1239"><tspan
         id="tspan1249"
         style="font-style:normal;font-variant:normal;font-weight:normal;font-stretch:normal;font-size:52.24003983px;font-family:'OCR A Extended';-inkscape-font-specification:'OCR A Extended, Normal';font-variant-ligatures:normal;font-variant-caps:normal;font-variant-numeric:normal;font-feature-settings:normal;text-align:start;writing-mode:lr-tb;text-anchor:start;fill:#ee0000;fill-opacity:1;stroke:#ee0000;stroke-width:0.39180031;stroke-opacity:1">E</tspan></tspan></text>
  <text
     id="text1241-0"
     y="74.934502"
     x="29.46911"
     style="font-style:normal;font-variant:normal;font-weight:normal;font-stretch:normal;font-size:52.24003983px;line-height:1.25;font-family:'OCR A Extended';-inkscape-font-specification:'OCR A Extended, Normal';font-variant-ligatures:normal;font-variant-caps:normal;font-variant-numeric:normal;font-feature-settings:normal;text-align:start;letter-spacing:0px;word-spacing:0px;writing-mode:lr-tb;text-anchor:start;fill:#f2faf1;fill-opacity:1;stroke:#0d1f22;stroke-width:0.39180031;stroke-opacity:1"
     xml:space="preserve"><tspan
       style="fill:#f2faf1;fill-opacity:1;stroke-width:0.39180031"
       y="74.934502"
       x="29.46911"
       id="tspan1239-3">m<tspan
   id="tspan1249-2"
   style="font-style:normal;font-variant:normal;font-weight:normal;font-stretch:normal;font-size:52.24003983px;font-family:'OCR A Extended';-inkscape-font-specification:'OCR A Extended, Normal';font-variant-ligatures:normal;font-variant-caps:normal;font-variant-numeric:normal;font-feature-settings:normal;text-align:start;writing-mode:lr-tb;text-anchor:start;fill:#f2faf1;fill-opacity:1;stroke:#ee0000;stroke-width:0.39180031;stroke-opacity:1" /></tspan></text>
  <text
     id="text1241-0-5"
     y="93.855133"
     x="37.611576"
     style="font-style:normal;font-variant:normal;font-weight:normal;font-stretch:normal;font-size:52.24003983px;line-height:1.25;font-family:'OCR A Extended';-inkscape-font-specification:'OCR A Extended, Normal';font-variant-ligatures:normal;font-variant-caps:normal;font-variant-numeric:normal;font-feature-settings:normal;text-align:start;letter-spacing:0px;word-spacing:0px;writing-mode:lr-tb;text-anchor:start;fill:#ff6902;fill-opacity:1;stroke:#0d1f22;stroke-width:0.39180031;stroke-opacity:1"
     xml:space="preserve"><tspan
       style="fill:#ff6902;fill-opacity:1;stroke-width:0.39180031"
       y="93.855133"
       x="37.611576"
       id="tspan1239-3-0">GA</tspan></text>
</svg>
