<?xml version="1.0" encoding="UTF-8" standalone="no"?>
<!-- Created with Inkscape (http://www.inkscape.org/) -->

<svg
   xmlns:dc="http://purl.org/dc/elements/1.1/"
   xmlns:cc="http://creativecommons.org/ns#"
   xmlns:rdf="http://www.w3.org/1999/02/22-rdf-syntax-ns#"
   xmlns:svg="http://www.w3.org/2000/svg"
   xmlns="http://www.w3.org/2000/svg"
   xmlns:sodipodi="http://sodipodi.sourceforge.net/DTD/sodipodi-0.dtd"
   xmlns:inkscape="http://www.inkscape.org/namespaces/inkscape"
   width="81.55471mm"
   height="39.169353mm"
   viewBox="0 0 81.554712 39.169354"
   version="1.1"
   id="svg1738"
   inkscape:version="0.92.4 (5da689c313, 2019-01-14)"
   sodipodi:docname="imb_tu1.svg">
  <defs
     id="defs1732">
    <inkscape:path-effect
       effect="bspline"
       id="path-effect1086"
       is_visible="true"
       weight="33.333333"
       steps="2"
       helper_size="0"
       apply_no_weight="true"
       apply_with_weight="true"
       only_selected="false" />
    <inkscape:path-effect
       effect="bspline"
       id="path-effect956"
       is_visible="true"
       weight="33.333333"
       steps="2"
       helper_size="0"
       apply_no_weight="true"
       apply_with_weight="true"
       only_selected="false" />
    <inkscape:path-effect
       effect="bspline"
       id="path-effect952"
       is_visible="true"
       weight="33.333333"
       steps="2"
       helper_size="0"
       apply_no_weight="true"
       apply_with_weight="true"
       only_selected="false" />
    <inkscape:path-effect
       effect="bspline"
       id="path-effect2375"
       is_visible="true"
       weight="33.333333"
       steps="2"
       helper_size="0"
       apply_no_weight="true"
       apply_with_weight="true"
       only_selected="false" />
    <inkscape:path-effect
       effect="bspline"
       id="path-effect2340"
       is_visible="true"
       weight="33.333333"
       steps="2"
       helper_size="0"
       apply_no_weight="true"
       apply_with_weight="true"
       only_selected="false" />
    <inkscape:path-effect
       effect="bspline"
       id="path-effect2319"
       is_visible="true"
       weight="33.333333"
       steps="2"
       helper_size="0"
       apply_no_weight="true"
       apply_with_weight="true"
       only_selected="false" />
    <inkscape:path-effect
       effect="bspline"
       id="path-effect2298"
       is_visible="true"
       weight="33.333333"
       steps="2"
       helper_size="0"
       apply_no_weight="true"
       apply_with_weight="true"
       only_selected="false" />
    <inkscape:path-effect
       effect="bspline"
       id="path-effect2340-0"
       is_visible="true"
       weight="33.333333"
       steps="2"
       helper_size="0"
       apply_no_weight="true"
       apply_with_weight="true"
       only_selected="false" />
    <inkscape:path-effect
       effect="bspline"
       id="path-effect2375-8"
       is_visible="true"
       weight="33.333333"
       steps="2"
       helper_size="0"
       apply_no_weight="true"
       apply_with_weight="true"
       only_selected="false" />
    <inkscape:path-effect
       effect="bspline"
       id="path-effect2340-9"
       is_visible="true"
       weight="33.333333"
       steps="2"
       helper_size="0"
       apply_no_weight="true"
       apply_with_weight="true"
       only_selected="false" />
    <inkscape:path-effect
       effect="bspline"
       id="path-effect2298-7"
       is_visible="true"
       weight="33.333333"
       steps="2"
       helper_size="0"
       apply_no_weight="true"
       apply_with_weight="true"
       only_selected="false" />
    <inkscape:path-effect
       effect="bspline"
       id="path-effect932"
       is_visible="true"
       weight="33.333333"
       steps="2"
       helper_size="0"
       apply_no_weight="true"
       apply_with_weight="true"
       only_selected="false" />
    <inkscape:path-effect
       effect="bspline"
       id="path-effect943"
       is_visible="true"
       weight="33.333333"
       steps="2"
       helper_size="0"
       apply_no_weight="true"
       apply_with_weight="true"
       only_selected="false" />
    <inkscape:path-effect
       effect="bspline"
       id="path-effect943-1"
       is_visible="true"
       weight="33.333333"
       steps="2"
       helper_size="0"
       apply_no_weight="true"
       apply_with_weight="true"
       only_selected="false" />
    <inkscape:path-effect
       effect="bspline"
       id="path-effect965"
       is_visible="true"
       weight="33.333333"
       steps="2"
       helper_size="0"
       apply_no_weight="true"
       apply_with_weight="true"
       only_selected="false" />
    <inkscape:path-effect
       effect="bspline"
       id="path-effect969"
       is_visible="true"
       weight="33.333333"
       steps="2"
       helper_size="0"
       apply_no_weight="true"
       apply_with_weight="true"
       only_selected="false" />
    <inkscape:path-effect
       effect="bspline"
       id="path-effect973"
       is_visible="true"
       weight="33.333333"
       steps="2"
       helper_size="0"
       apply_no_weight="true"
       apply_with_weight="true"
       only_selected="false" />
    <inkscape:path-effect
       effect="bspline"
       id="path-effect978"
       is_visible="true"
       weight="33.333333"
       steps="2"
       helper_size="0"
       apply_no_weight="true"
       apply_with_weight="true"
       only_selected="false" />
    <inkscape:path-effect
       effect="bspline"
       id="path-effect2298-6"
       is_visible="true"
       weight="33.333333"
       steps="2"
       helper_size="0"
       apply_no_weight="true"
       apply_with_weight="true"
       only_selected="false" />
    <inkscape:path-effect
       effect="bspline"
       id="path-effect2319-9"
       is_visible="true"
       weight="33.333333"
       steps="2"
       helper_size="0"
       apply_no_weight="true"
       apply_with_weight="true"
       only_selected="false" />
    <inkscape:path-effect
       effect="bspline"
       id="path-effect2340-91"
       is_visible="true"
       weight="33.333333"
       steps="2"
       helper_size="0"
       apply_no_weight="true"
       apply_with_weight="true"
       only_selected="false" />
    <inkscape:path-effect
       effect="bspline"
       id="path-effect2340-0-4"
       is_visible="true"
       weight="33.333333"
       steps="2"
       helper_size="0"
       apply_no_weight="true"
       apply_with_weight="true"
       only_selected="false" />
    <inkscape:path-effect
       only_selected="false"
       apply_with_weight="true"
       apply_no_weight="true"
       helper_size="0"
       steps="2"
       weight="33.333333"
       is_visible="true"
       id="path-effect1377"
       effect="bspline" />
    <inkscape:path-effect
       only_selected="false"
       apply_with_weight="true"
       apply_no_weight="true"
       helper_size="0"
       steps="2"
       weight="33.333333"
       is_visible="true"
       id="path-effect978-5"
       effect="bspline" />
    <inkscape:path-effect
       only_selected="false"
       apply_with_weight="true"
       apply_no_weight="true"
       helper_size="0"
       steps="2"
       weight="33.333333"
       is_visible="true"
       id="path-effect973-0"
       effect="bspline" />
    <inkscape:path-effect
       only_selected="false"
       apply_with_weight="true"
       apply_no_weight="true"
       helper_size="0"
       steps="2"
       weight="33.333333"
       is_visible="true"
       id="path-effect969-6"
       effect="bspline" />
    <inkscape:path-effect
       only_selected="false"
       apply_with_weight="true"
       apply_no_weight="true"
       helper_size="0"
       steps="2"
       weight="33.333333"
       is_visible="true"
       id="path-effect965-3"
       effect="bspline" />
    <inkscape:path-effect
       only_selected="false"
       apply_with_weight="true"
       apply_no_weight="true"
       helper_size="0"
       steps="2"
       weight="33.333333"
       is_visible="true"
       id="path-effect943-4"
       effect="bspline" />
    <inkscape:path-effect
       only_selected="false"
       apply_with_weight="true"
       apply_no_weight="true"
       helper_size="0"
       steps="2"
       weight="33.333333"
       is_visible="true"
       id="path-effect932-1"
       effect="bspline" />
    <inkscape:path-effect
       only_selected="false"
       apply_with_weight="true"
       apply_no_weight="true"
       helper_size="0"
       steps="2"
       weight="33.333333"
       is_visible="true"
       id="path-effect901"
       effect="bspline" />
    <inkscape:path-effect
       is_visible="true"
       id="path-effect981"
       effect="spiro" />
    <inkscape:path-effect
       is_visible="true"
       id="path-effect977"
       effect="spiro" />
    <clipPath
       clipPathUnits="userSpaceOnUse"
       id="clipPath835">
      <path
         d="M 0,61.228 H 224.503 V 0 H 0 Z"
         id="path833"
         inkscape:connector-curvature="0" />
    </clipPath>
    <clipPath
       clipPathUnits="userSpaceOnUse"
       id="clipPath843">
      <path
         d="M 0,61.2285 H 224.503 V 0 H 0 Z"
         id="path841"
         inkscape:connector-curvature="0" />
    </clipPath>
    <clipPath
       clipPathUnits="userSpaceOnUse"
       id="clipPath867">
      <path
         d="M 0,61.228 H 224.503 V 0 H 0 Z"
         id="path865"
         inkscape:connector-curvature="0" />
    </clipPath>
    <inkscape:path-effect
       only_selected="false"
       apply_with_weight="true"
       apply_no_weight="true"
       helper_size="0"
       steps="2"
       weight="33.333333"
       is_visible="true"
       id="path-effect943-1-8"
       effect="bspline" />
    <inkscape:path-effect
       is_visible="true"
       id="path-effect981-4"
       effect="spiro" />
    <inkscape:path-effect
       is_visible="true"
       id="path-effect977-7"
       effect="spiro" />
    <clipPath
       clipPathUnits="userSpaceOnUse"
       id="clipPath835-0">
      <path
         d="M 0,61.228 H 224.503 V 0 H 0 Z"
         id="path833-3"
         inkscape:connector-curvature="0" />
    </clipPath>
    <clipPath
       clipPathUnits="userSpaceOnUse"
       id="clipPath843-6">
      <path
         d="M 0,61.2285 H 224.503 V 0 H 0 Z"
         id="path841-1"
         inkscape:connector-curvature="0" />
    </clipPath>
    <clipPath
       clipPathUnits="userSpaceOnUse"
       id="clipPath867-2">
      <path
         d="M 0,61.228 H 224.503 V 0 H 0 Z"
         id="path865-4"
         inkscape:connector-curvature="0" />
    </clipPath>
    <inkscape:path-effect
       effect="bspline"
       id="path-effect1086-1"
       is_visible="true"
       weight="33.333333"
       steps="2"
       helper_size="0"
       apply_no_weight="true"
       apply_with_weight="true"
       only_selected="false" />
    <inkscape:path-effect
       effect="bspline"
       id="path-effect1086-15"
       is_visible="true"
       weight="33.333333"
       steps="2"
       helper_size="0"
       apply_no_weight="true"
       apply_with_weight="true"
       only_selected="false" />
  </defs>
  <sodipodi:namedview
     id="base"
     pagecolor="#ffffff"
     bordercolor="#666666"
     borderopacity="1.0"
     inkscape:pageopacity="0.0"
     inkscape:pageshadow="2"
     inkscape:zoom="1.979899"
     inkscape:cx="134.38699"
     inkscape:cy="124.43838"
     inkscape:document-units="mm"
     inkscape:current-layer="g2371"
     showgrid="false"
     fit-margin-top="0"
     fit-margin-left="0"
     fit-margin-right="0"
     fit-margin-bottom="0"
     inkscape:window-width="1920"
     inkscape:window-height="1017"
     inkscape:window-x="-8"
     inkscape:window-y="-8"
     inkscape:window-maximized="1" />
  <metadata
     id="metadata1735">
    <rdf:RDF>
      <cc:Work
         rdf:about="">
        <dc:format>image/svg+xml</dc:format>
        <dc:type
           rdf:resource="http://purl.org/dc/dcmitype/StillImage" />
        <dc:title />
      </cc:Work>
    </rdf:RDF>
  </metadata>
  <g
     inkscape:label="Layer 1"
     inkscape:groupmode="layer"
     id="layer1"
     transform="translate(-105.83486,-140.53316)">
    <g
       id="g2371">
      <path
         style="opacity:1;fill:#d03d3d;fill-opacity:1;fill-rule:evenodd;stroke:none;stroke-width:0.17885263;stroke-linecap:round;stroke-linejoin:round;stroke-miterlimit:4;stroke-dasharray:none;stroke-dashoffset:0;stroke-opacity:1;paint-order:normal"
         d=""
         id="path2656"
         inkscape:connector-curvature="0"
         transform="scale(0.26458333)" />
      <g
         id="Artboard"
         transform="matrix(0.26458333,0,0,0.26458333,133.66374,135.98958)" />
      <g
         aria-label="Download Historical Wind Data"
         style="font-style:normal;font-variant:normal;font-weight:normal;font-stretch:normal;font-size:13.33333302px;line-height:1.25;font-family:Arial;-inkscape-font-specification:'Arial, Normal';font-variant-ligatures:normal;font-variant-caps:normal;font-variant-numeric:normal;font-feature-settings:normal;text-align:start;letter-spacing:0px;word-spacing:0px;writing-mode:lr-tb;text-anchor:start;fill:#000000;fill-opacity:1;stroke:none"
         id="text4854"
         transform="matrix(0.26458333,0,0,0.26458333,55.75732,106.26728)" />
      <circle
         id="circle3-7-1"
         r="14.552083"
         cy="-166.02682"
         cx="-134.09573"
         style="opacity:1;fill:#26486c;fill-opacity:0.94117647;stroke-width:0.26458332"
         transform="rotate(175.53565)" />
      <path
         transform="matrix(0.28903352,0,0,0.28903352,117.27356,138.90359)"
         inkscape:original-d="m 96.950891,47.724702 c 1.638163,-0.252248 3.276059,-0.504235 4.913689,-0.755954 0.11836,0.117832 0.2365,0.235971 0.35436,0.354354 0.1105,0.999797 0.22075,1.999858 0.33073,3.000184 1.20928,11.735478 2.41773,23.465758 3.6262,35.199034 0.0239,0.07848 0.0475,0.157226 0.0709,0.236236 0.0437,0.03919 0.0869,0.07848 0.12993,0.118115 0.57493,0.0076 1.14995,0.01548 1.72452,0.02363 1.03923,0.0627 2.07913,0.125727 3.1183,0.188989 0.81902,0.220168 1.63816,0.440706 2.45685,0.661458 0.96074,0.72403 1.89014,1.448644 2.83482,2.173362 0.45738,0.88165 0.91453,1.763638 1.37141,2.645852 0.10607,0.51763 0.21185,1.035404 0.31738,1.553503 2.6e-4,0.300532 -0.0109,0.601094 -0.0167,0.902036 -0.0443,0.144637 -0.0888,0.289277 -0.13363,0.434314 -0.089,0.08344 -0.17792,0.166777 -0.26727,0.250565 -1.46864,-2.64e-4 -2.92857,-2.64e-4 -4.39325,0 -10.34744,-2.64e-4 -20.69142,-2.64e-4 -31.037531,0 -0.267475,-0.05489 -0.535201,-0.109513 -0.803198,-0.163875 -0.157345,-0.47309 -0.314716,-0.945205 -0.472472,-1.417409 0.173445,-0.787451 0.315246,-1.575166 0.472472,-2.362351 0.519779,-0.661467 1.039699,-1.323181 1.55915,-1.984375 0.803111,-0.645689 1.575165,-1.291683 2.362351,-1.937129 0.708713,-0.252155 1.417677,-0.504232 2.126117,-0.755951 0.535491,-0.126201 1.071198,-0.252249 1.6064,-0.377979 1.196496,-2.64e-4 2.42561,-2.64e-4 3.63802,0 0.03176,-0.03176 0.06326,-0.06326 0.09449,-0.09449 0.06273,-0.265747 0.126256,-0.56723 0.188989,-0.850445 1.2193,-11.734577 2.440993,-23.494431 3.661092,-35.241248 0.0281,-0.473543 0.05595,-0.946843 0.08352,-1.419868 2.65e-4,-0.100433 2.65e-4,-0.200718 0,-0.30068 0.02766,-0.02682 0.05519,-0.05351 0.08239,-0.07987 z"
         inkscape:path-effect="#path-effect2298"
         inkscape:connector-curvature="0"
         id="path2296"
         d="m 97.769989,47.598687 c 0.819098,-0.126016 2.456991,-0.378001 3.334841,-0.444922 0.87785,-0.06692 0.99599,0.05122 1.11016,0.610191 0.11417,0.558974 0.22441,1.559036 0.88404,7.926937 0.65963,6.367901 1.86808,18.098181 2.48425,24.004091 0.61617,5.905911 0.6398,5.984648 0.67336,6.043852 0.0336,0.0592 0.0768,0.09848 0.38588,0.122098 0.30911,0.02362 0.88413,0.03149 1.69102,0.06692 0.80689,0.03543 1.84679,0.09845 2.77585,0.240184 0.92907,0.141732 1.74821,0.362269 2.63494,0.838452 0.88673,0.476182 1.82196,1.193192 2.52294,1.996311 0.70099,0.80312 1.15814,1.685106 1.43962,2.384979 0.28147,0.699872 0.38726,1.217646 0.43739,1.626877 0.0501,0.40923 0.0446,0.709896 0.0195,0.932659 -0.025,0.222763 -0.0695,0.367402 -0.13635,0.481669 -0.0668,0.114267 -0.15573,0.197617 -0.93473,0.239505 -0.779,0.04189 -2.23893,0.04189 -8.14499,0.04189 -5.90606,0 -16.25004,0 -21.556864,-0.02729 -5.306824,-0.02729 -5.57455,-0.08192 -5.787349,-0.345741 -0.212798,-0.263825 -0.370171,-0.73594 -0.369837,-1.367354 3.33e-4,-0.631415 0.157272,-1.416103 0.495859,-2.140422 0.338587,-0.724319 0.858505,-1.386034 1.516651,-2.043307 0.658145,-0.657273 1.436529,-1.295548 2.184494,-1.744288 0.747964,-0.448739 1.456929,-0.700815 2.07889,-0.889755 0.621961,-0.188939 1.157668,-0.314989 2.023494,-0.377949 0.865827,-0.06296 2.094941,-0.06296 2.717026,-0.07884 0.622085,-0.01588 0.653585,-0.04738 0.698814,-0.196258 0.04523,-0.148877 0.112063,-0.449625 0.75306,-6.458512 0.640997,-6.008886 1.862688,-17.76874 2.486783,-23.878915 0.624095,-6.110175 0.651935,-6.583476 0.665847,-6.870197 0.01391,-0.286722 0.01391,-0.387007 0.02774,-0.450396 0.01383,-0.06339 0.04136,-0.09008 0.05496,-0.103261 0.0136,-0.01318 0.01357,-0.01319 0.832667,-0.139205 z"
         style="fill:#ffffff;fill-opacity:1;stroke:#a8a8a8;stroke-width:2.48827362;stroke-linecap:butt;stroke-linejoin:miter;stroke-miterlimit:4;stroke-dasharray:none;stroke-opacity:1" />
      <path
         sodipodi:nodetypes="ccc"
         inkscape:connector-curvature="0"
         id="path2300"
         d="m 136.39154,158.28793 2.81314,-5.16196 2.81313,5.21659"
         style="fill:none;fill-opacity:1;stroke:#ffffff;stroke-width:0.62575752;stroke-linecap:round;stroke-linejoin:miter;stroke-miterlimit:4;stroke-dasharray:none;stroke-opacity:1;paint-order:normal" />
      <path
         sodipodi:nodetypes="ccc"
         inkscape:connector-curvature="0"
         id="path2300-6"
         d="m 150.29565,155.97635 2.81313,-5.16196 2.81313,5.21658"
         style="fill:none;fill-opacity:1;stroke:#ffffff;stroke-width:0.62575752;stroke-linecap:round;stroke-linejoin:miter;stroke-miterlimit:4;stroke-dasharray:none;stroke-opacity:1;paint-order:normal" />
      <path
         inkscape:connector-curvature="0"
         id="path2327"
         d="m 138.95947,151.87852 c -0.19425,-0.076 -0.30607,-0.15376 -0.45468,-0.31636 -0.15612,-0.17082 -0.22319,-0.33886 -0.22261,-0.55767 4.6e-4,-0.18483 0.062,-0.4574 0.13578,-0.60212 0.10478,-0.20544 0.40277,-0.36915 0.74271,-0.40809 0.3562,-0.0408 0.6811,-0.12204 1.60649,-0.40175 1.20966,-0.36563 1.84545,-0.57648 2.02769,-0.67245 0.0986,-0.0519 0.2388,-0.16798 0.37753,-0.31248 0.18584,-0.19356 0.24161,-0.27463 0.35286,-0.51288 0.16869,-0.36125 0.36291,-0.64832 0.6253,-0.92421 0.25883,-0.27214 0.43829,-0.39001 0.84497,-0.55497 l 0.31909,-0.12944 0.45065,-0.0112 c 0.27386,-0.006 0.531,0.001 0.65548,0.0213 0.46613,0.0742 0.90407,0.32456 1.56898,0.89722 0.20951,0.18043 0.44821,0.36101 0.53047,0.40128 0.28499,0.13955 0.49374,0.14296 2.33874,0.0382 2.08741,-0.11854 2.40063,-0.11846 2.59331,5.8e-4 0.16249,0.10039 0.385,0.36441 0.42371,0.50271 0.0519,0.18542 0.0259,0.52177 -0.0529,0.68462 -0.0804,0.16606 -0.35989,0.46656 -0.50085,0.53847 -0.27506,0.14033 -0.6694,0.0802 -1.04799,-0.15996 -0.29849,-0.18929 -0.46124,-0.25405 -0.63844,-0.25405 -0.14421,0 -0.97621,0.13563 -4.27275,0.69652 -2.97174,0.50563 -5.37321,0.90372 -5.92669,0.98249 -0.87269,0.12418 -1.03742,0.20173 -1.36603,0.64309 -0.18881,0.25357 -0.34812,0.38019 -0.54581,0.43379 -0.16335,0.0443 -0.42007,0.034 -0.56499,-0.0227 z m 7.20479,-2.63222 c 0.27317,-0.13842 0.42516,-0.39083 0.42516,-0.70604 0,-0.65295 -0.74324,-1.0144 -1.26598,-0.61569 -0.0749,0.0572 -0.15002,0.15219 -0.20665,0.26161 -0.0749,0.14475 -0.0889,0.20125 -0.0889,0.35826 0,0.45792 0.37779,0.81273 0.83355,0.78282 0.10477,-0.006 0.21461,-0.0363 0.30288,-0.0809 z"
         style="opacity:1;fill:#ffffff;fill-opacity:1;fill-rule:evenodd;stroke:#a8a8a8;stroke-width:0.39812553;stroke-linecap:round;stroke-linejoin:round;stroke-miterlimit:4;stroke-dasharray:none;stroke-dashoffset:0;stroke-opacity:1;paint-order:normal" />
      <path
         transform="matrix(0.28903352,0,0,0.28903352,117.06097,137.66391)"
         inkscape:original-d="m 65.614668,75.299926 c 7.372448,-2.64e-4 14.744634,-2.64e-4 22.116553,0 -0.02514,0.02511 -0.05052,0.05047 -0.07618,0.07609 0.0122,0.04748 0.02389,0.09423 0.03544,0.141743 -0.02344,0.55313 -0.04698,1.102164 -0.07087,1.653646 -0.106095,0.460624 -0.212349,0.921051 -0.318918,1.381974 -0.334627,0.571021 -0.669068,1.14154 -1.003999,1.712706 -0.559133,0.586706 -1.117917,1.173036 -1.67727,1.75995 -0.649682,0.456668 -1.299027,0.913178 -1.948939,1.370164 -0.783614,0.28335 -1.566762,0.5667 -2.35054,0.850447 -0.71456,0.113411 -1.389891,0.372227 -2.085232,0.558737 -1.088763,-0.07291 -2.176806,-0.145495 -3.265606,-0.217845 -0.890836,-0.156207 -1.781532,-0.312079 -2.672697,-0.467723 -1.03565,-0.551637 -2.071073,-1.102751 -3.107007,-1.65373 -0.773777,-0.802148 -1.547672,-1.60388 -2.321904,-2.405425 -0.392284,-0.662866 -0.784839,-1.325475 -1.177655,-1.987817 -0.02479,-0.765789 -0.04985,-1.531496 -0.07517,-2.296848 -0.0053,-0.111591 -0.01087,-0.222988 -0.01669,-0.334087 -7.94e-4,-0.04379 2.65e-4,-0.0875 0,-0.130855 7.94e-4,-0.0047 0.0013,-0.0091 0.0016,-0.01328 0.005,5.29e-4 0.01035,0.0011 0.01513,0.0021 z"
         inkscape:path-effect="#path-effect2340"
         inkscape:connector-curvature="0"
         id="path2338"
         d="m 69.300892,75.299926 c 3.686224,0 11.05841,0 14.7318,0.01256 3.673389,0.01255 3.648004,0.03791 3.641122,0.0745 -0.0069,0.03659 0.0048,0.08334 -0.0011,0.383619 -0.0059,0.300277 -0.02945,0.849311 -0.09441,1.355347 -0.06496,0.506036 -0.171215,0.966464 -0.391757,1.482434 -0.220543,0.51597 -0.554985,1.086489 -1.001979,1.665446 -0.446993,0.578958 -1.005778,1.165287 -1.610274,1.687107 -0.604496,0.52182 -1.253841,0.97833 -1.970596,1.348547 -0.716754,0.370216 -1.499902,0.653566 -2.239341,0.888484 -0.739439,0.234917 -1.434236,0.421088 -2.326321,0.477937 -0.892086,0.05685 -1.980129,-0.01573 -2.969964,-0.130002 -0.989835,-0.114269 -1.880531,-0.270141 -2.843996,-0.623775 -0.963464,-0.353633 -1.998888,-0.904746 -2.903794,-1.581338 -0.904906,-0.676592 -1.6788,-1.478324 -2.26208,-2.210567 -0.58328,-0.732242 -0.975834,-1.394852 -1.184618,-2.109005 -0.208783,-0.714153 -0.233843,-1.47986 -0.249154,-1.918329 -0.01531,-0.438469 -0.02088,-0.549867 -0.02365,-0.627318 -0.0028,-0.07745 -0.0028,-0.121161 -0.0025,-0.145202 2.85e-4,-0.02404 8.14e-4,-0.02844 0.0036,-0.03017 0.0027,-0.0017 0.0081,-9.93e-4 0.01048,-6.58e-4 0.0024,3.35e-4 0.0024,3.88e-4 3.688591,3.88e-4 z"
         style="fill:#ffffff;fill-opacity:1;stroke:#a8a8a8;stroke-width:1.44965885;stroke-linecap:butt;stroke-linejoin:miter;stroke-miterlimit:4;stroke-dasharray:none;stroke-opacity:1" />
      <path
         transform="matrix(0.28903352,0,0,0.28903352,130.95816,135.26007)"
         inkscape:original-d="m 65.614668,75.299926 c 7.372448,-2.64e-4 14.744634,-2.64e-4 22.116553,0 -0.02514,0.02511 -0.05052,0.05047 -0.07618,0.07609 0.0122,0.04748 0.02389,0.09423 0.03544,0.141743 -0.02344,0.55313 -0.04698,1.102164 -0.07087,1.653646 -0.106095,0.460624 -0.212349,0.921051 -0.318918,1.381974 -0.334627,0.571021 -0.669068,1.14154 -1.003999,1.712706 -0.559133,0.586706 -1.117917,1.173036 -1.67727,1.75995 -0.649682,0.456668 -1.299027,0.913178 -1.948939,1.370164 -0.783614,0.28335 -1.566762,0.5667 -2.35054,0.850447 -0.71456,0.113411 -1.389891,0.372227 -2.085232,0.558737 -1.088763,-0.07291 -2.176806,-0.145495 -3.265606,-0.217845 -0.890836,-0.156207 -1.781532,-0.312079 -2.672697,-0.467723 -1.03565,-0.551637 -2.071073,-1.102751 -3.107007,-1.65373 -0.773777,-0.802148 -1.547672,-1.60388 -2.321904,-2.405425 -0.392284,-0.662866 -0.784839,-1.325475 -1.177655,-1.987817 -0.02479,-0.765789 -0.04985,-1.531496 -0.07517,-2.296848 -0.0053,-0.111591 -0.01087,-0.222988 -0.01669,-0.334087 -7.94e-4,-0.04379 2.65e-4,-0.0875 0,-0.130855 7.94e-4,-0.0047 0.0013,-0.0091 0.0016,-0.01328 0.005,5.29e-4 0.01035,0.0011 0.01513,0.0021 z"
         inkscape:path-effect="#path-effect2340-0"
         inkscape:connector-curvature="0"
         id="path2338-3"
         d="m 69.300892,75.299926 c 3.686224,0 11.05841,0 14.7318,0.01256 3.673389,0.01255 3.648004,0.03791 3.641122,0.0745 -0.0069,0.03659 0.0048,0.08334 -0.0011,0.383619 -0.0059,0.300277 -0.02945,0.849311 -0.09441,1.355347 -0.06496,0.506036 -0.171215,0.966464 -0.391757,1.482434 -0.220543,0.51597 -0.554985,1.086489 -1.001979,1.665446 -0.446993,0.578958 -1.005778,1.165287 -1.610274,1.687107 -0.604496,0.52182 -1.253841,0.97833 -1.970596,1.348547 -0.716754,0.370216 -1.499902,0.653566 -2.239341,0.888484 -0.739439,0.234917 -1.434236,0.421088 -2.326321,0.477937 -0.892086,0.05685 -1.980129,-0.01573 -2.969964,-0.130002 -0.989835,-0.114269 -1.880531,-0.270141 -2.843996,-0.623775 -0.963464,-0.353633 -1.998888,-0.904746 -2.903794,-1.581338 -0.904906,-0.676592 -1.6788,-1.478324 -2.26208,-2.210567 -0.58328,-0.732242 -0.975834,-1.394852 -1.184618,-2.109005 -0.208783,-0.714153 -0.233843,-1.47986 -0.249154,-1.918329 -0.01531,-0.438469 -0.02088,-0.549867 -0.02365,-0.627318 -0.0028,-0.07745 -0.0028,-0.121161 -0.0025,-0.145202 2.85e-4,-0.02404 8.14e-4,-0.02844 0.0036,-0.03017 0.0027,-0.0017 0.0081,-9.93e-4 0.01048,-6.58e-4 0.0024,3.35e-4 0.0024,3.88e-4 3.688591,3.88e-4 z"
         style="fill:#ffffff;fill-opacity:1;stroke:#a8a8a8;stroke-width:1.44965885;stroke-linecap:butt;stroke-linejoin:miter;stroke-miterlimit:4;stroke-dasharray:none;stroke-opacity:1" />
      <path
         style="opacity:1;fill:none;fill-opacity:1;fill-rule:evenodd;stroke:none;stroke-width:0.01790564;stroke-linecap:round;stroke-linejoin:round;stroke-miterlimit:4;stroke-dasharray:none;stroke-dashoffset:0;stroke-opacity:1;paint-order:normal"
         d="m 145.64962,149.2672 c -0.36633,-0.08 -0.61036,-0.41016 -0.58582,-0.79252 0.0159,-0.24699 0.1923,-0.50512 0.42215,-0.61757 0.11233,-0.0549 0.12998,-0.0582 0.31563,-0.0582 0.18396,0 0.20441,0.004 0.31685,0.0569 0.31228,0.14793 0.47804,0.45865 0.42546,0.79752 -0.05,0.32244 -0.28065,0.55831 -0.60628,0.62006 -0.1176,0.0223 -0.16176,0.0213 -0.28799,-0.006 z"
         id="path2654"
         inkscape:connector-curvature="0" />
      <path
         style="opacity:1;fill:#e2e4e5;fill-opacity:1;fill-rule:evenodd;stroke:none;stroke-width:0.0506448;stroke-linecap:round;stroke-linejoin:round;stroke-miterlimit:4;stroke-dasharray:none;stroke-dashoffset:0;stroke-opacity:1;paint-order:normal"
         d="m 145.43452,149.15623 c -0.62848,-0.38325 -0.35585,-1.35409 0.37724,-1.34337 0.55027,0.008 0.89039,0.59212 0.63377,1.08837 -0.16875,0.32634 -0.68182,0.45575 -1.01101,0.255 z"
         id="path2658"
         inkscape:connector-curvature="0" />
      <g
         id="g2790"
         transform="matrix(1.2260536,0,0,1.2260536,-31.33664,-102.7848)">
        <text
           id="text2712"
           y="202.49965"
           x="146.23804"
           style="font-style:normal;font-variant:normal;font-weight:normal;font-stretch:normal;font-size:2.67675233px;line-height:1.25;font-family:'Times New Roman';-inkscape-font-specification:'Times New Roman, Normal';font-variant-ligatures:normal;font-variant-caps:normal;font-variant-numeric:normal;font-feature-settings:normal;text-align:start;letter-spacing:0px;word-spacing:0px;writing-mode:lr-tb;text-anchor:start;fill:#ffffff;fill-opacity:1;stroke:#a8a8a8;stroke-width:0.12547275;stroke-opacity:1"
           xml:space="preserve"><tspan
             style="font-style:normal;font-variant:normal;font-weight:normal;font-stretch:normal;font-size:2.67675233px;font-family:'Eras Demi ITC';-inkscape-font-specification:'Eras Demi ITC, Normal';font-variant-ligatures:normal;font-variant-caps:normal;font-variant-numeric:normal;font-feature-settings:normal;text-align:start;writing-mode:lr-tb;text-anchor:start;fill:#ffffff;fill-opacity:1;stroke:#a8a8a8;stroke-width:0.12547275;stroke-opacity:1"
             y="202.49965"
             x="146.23804"
             id="tspan2710"
             sodipodi:role="line">$</tspan></text>
        <text
           id="text2712-2"
           y="201.43332"
           x="143.69727"
           style="font-style:normal;font-variant:normal;font-weight:normal;font-stretch:normal;font-size:3.44732499px;line-height:1.25;font-family:'Times New Roman';-inkscape-font-specification:'Times New Roman, Normal';font-variant-ligatures:normal;font-variant-caps:normal;font-variant-numeric:normal;font-feature-settings:normal;text-align:start;letter-spacing:0px;word-spacing:0px;writing-mode:lr-tb;text-anchor:start;fill:#ffffff;fill-opacity:1;stroke:#a8a8a8;stroke-width:0.16159335;stroke-opacity:1"
           xml:space="preserve"><tspan
             style="font-style:normal;font-variant:normal;font-weight:normal;font-stretch:normal;font-size:3.44732499px;font-family:'Eras Demi ITC';-inkscape-font-specification:'Eras Demi ITC, Normal';font-variant-ligatures:normal;font-variant-caps:normal;font-variant-numeric:normal;font-feature-settings:normal;text-align:start;writing-mode:lr-tb;text-anchor:start;fill:#ffffff;fill-opacity:1;stroke:#a8a8a8;stroke-width:0.16159335;stroke-opacity:1"
             y="201.43332"
             x="143.69727"
             id="tspan2710-2"
             sodipodi:role="line">$</tspan></text>
        <text
           id="text2712-8"
           y="202.49965"
           x="141.61179"
           style="font-style:normal;font-variant:normal;font-weight:normal;font-stretch:normal;font-size:2.67675233px;line-height:1.25;font-family:'Times New Roman';-inkscape-font-specification:'Times New Roman, Normal';font-variant-ligatures:normal;font-variant-caps:normal;font-variant-numeric:normal;font-feature-settings:normal;text-align:start;letter-spacing:0px;word-spacing:0px;writing-mode:lr-tb;text-anchor:start;fill:#ffffff;fill-opacity:1;stroke:#a8a8a8;stroke-width:0.12547275;stroke-opacity:1"
           xml:space="preserve"><tspan
             style="font-style:normal;font-variant:normal;font-weight:normal;font-stretch:normal;font-size:2.67675233px;font-family:'Eras Demi ITC';-inkscape-font-specification:'Eras Demi ITC, Normal';font-variant-ligatures:normal;font-variant-caps:normal;font-variant-numeric:normal;font-feature-settings:normal;text-align:start;writing-mode:lr-tb;text-anchor:start;fill:#ffffff;fill-opacity:1;stroke:#a8a8a8;stroke-width:0.12547275;stroke-opacity:1"
             y="202.49965"
             x="141.61179"
             id="tspan2710-1"
             sodipodi:role="line">$</tspan></text>
      </g>
      <text
         xml:space="preserve"
         style="font-style:normal;font-variant:normal;font-weight:normal;font-stretch:normal;font-size:6.3499999px;line-height:1.25;font-family:Arial;-inkscape-font-specification:'Arial, Normal';font-variant-ligatures:normal;font-variant-caps:normal;font-variant-numeric:normal;font-feature-settings:normal;text-align:start;letter-spacing:0px;word-spacing:0px;writing-mode:lr-tb;text-anchor:start;fill:#27496d;fill-opacity:0.94117647;stroke:none;stroke-width:0.26458332"
         id="text846"
         y="179.6281"
         x="105.34496"><tspan
           sodipodi:role="line"
           id="tspan844"
           x="105.34496"
           y="179.6281"
           style="stroke-width:0.26458332">Download Imbalance Factors</tspan></text>
      <path
         style="fill:none;stroke:#a8a8a8;stroke-width:0.26465992;stroke-linecap:round;stroke-linejoin:miter;stroke-opacity:1;stroke-miterlimit:4;stroke-dasharray:none"
         d="m 146.12574,165.90472 c -0.0334,-4.09839 -0.0668,-8.19653 -0.10023,-12.29439"
         id="path950"
         inkscape:connector-curvature="0"
         inkscape:path-effect="#path-effect952"
         inkscape:original-d="m 146.12574,165.90472 c -0.0331,-4.09839 -0.0666,-8.19653 -0.10023,-12.29439"
         transform="matrix(0.82506497,0,0,0.8759928,25.553744,18.316152)" />
      <path
         style="fill:none;stroke:#a8a8a8;stroke-width:0.565;stroke-linecap:round;stroke-linejoin:miter;stroke-miterlimit:4;stroke-dasharray:none;stroke-opacity:1"
         d="m 148.09685,163.85009 c -1.41403,0 -2.82833,0 -4.2429,0"
         id="path954"
         inkscape:connector-curvature="0"
         inkscape:path-effect="#path-effect956"
         inkscape:original-d="m 148.09685,163.85009 c -1.41403,-2.7e-4 -2.82833,-2.7e-4 -4.2429,0"
         transform="translate(-0.03543527,-0.10022607)" />
      <path
         style="opacity:1;fill:#e2e4e5;fill-opacity:1;fill-rule:evenodd;stroke:#a8a8a8;stroke-width:0.05368921;stroke-linecap:round;stroke-linejoin:round;stroke-miterlimit:4;stroke-dasharray:none;stroke-dashoffset:0;stroke-opacity:1;paint-order:normal"
         d="m 152.67994,86.440399 c -1.9e-4,-1.170765 -0.25488,-33.459589 -0.28452,-36.070753 l -0.0395,-3.477549 0.61292,-0.07532 c 0.33711,-0.04143 0.62238,-0.06586 0.63395,-0.05429 0.0411,0.04109 0.41908,3.610228 1.98056,18.701471 1.70073,16.437123 2.12384,20.493448 2.18143,20.913314 l 0.0368,0.268322 h -2.56082 -2.56082 z"
         id="path958"
         inkscape:connector-curvature="0"
         transform="matrix(0.26458333,0,0,0.26458333,105.83486,140.53316)" />
      <path
         style="fill:none;stroke:#a8a8a8;stroke-width:0.43718351;stroke-linecap:round;stroke-linejoin:miter;stroke-miterlimit:4;stroke-dasharray:none;stroke-opacity:1"
         d="m 156.38221,157.05142 c -1.87056,0.7126 -3.74145,1.42532 -5.61266,2.13816"
         id="path1084"
         inkscape:connector-curvature="0"
         inkscape:path-effect="#path-effect1086"
         inkscape:original-d="m 156.38221,157.05142 c -1.87062,0.71245 -3.74151,1.42517 -5.61266,2.13816"
         transform="matrix(0.94578034,0,0,0.88512,8.3440667,18.068116)" />
      <path
         style="fill:none;stroke:#a8a8a8;stroke-width:0.4371835;stroke-linecap:round;stroke-linejoin:miter;stroke-miterlimit:4;stroke-dasharray:none;stroke-opacity:1"
         d="m 156.38221,157.05142 c -1.87056,0.7126 -3.74145,1.42532 -5.61266,2.13816"
         id="path1084-3"
         inkscape:connector-curvature="0"
         inkscape:path-effect="#path-effect1086-15"
         inkscape:original-d="m 156.38221,157.05142 c -1.87062,0.71245 -3.74151,1.42517 -5.61266,2.13816"
         transform="matrix(0.94578035,0,0,0.88511999,-5.6045945,20.454218)" />
      <path
         style="opacity:1;fill:#e2e4e5;fill-opacity:1;fill-rule:evenodd;stroke:#a8a8a8;stroke-width:0.26996624;stroke-linecap:round;stroke-linejoin:round;stroke-miterlimit:4;stroke-dasharray:none;stroke-dashoffset:0;stroke-opacity:1;paint-order:normal"
         d="m 175.91155,71.397683 c -0.71562,-0.129692 -1.87125,-0.50548 -2.56808,-0.835085 l -1.26696,-0.599281 7.21093,-2.567091 c 3.96601,-1.4119 7.96489,-2.839309 8.8864,-3.172021 l 1.67547,-0.60493 -0.11864,0.764294 c -0.27324,1.76018 -1.96241,3.998272 -4.07392,5.397777 -0.5611,0.371901 -1.80664,0.947308 -2.76786,1.278682 -1.59015,0.548199 -1.92469,0.601189 -3.71194,0.587978 -1.08036,-0.008 -2.54979,-0.12063 -3.2654,-0.250323 z"
         id="path1124"
         inkscape:connector-curvature="0"
         transform="matrix(0.26458333,0,0,0.26458333,105.83486,140.53316)" />
      <path
         style="opacity:1;fill:#e2e4e5;fill-opacity:1;fill-rule:evenodd;stroke:#a8a8a8;stroke-width:0.26996624;stroke-linecap:round;stroke-linejoin:round;stroke-miterlimit:4;stroke-dasharray:none;stroke-dashoffset:0;stroke-opacity:1;paint-order:normal"
         d="m 123.46478,80.483395 c -1.30289,-0.235122 -3.84141,-1.214615 -3.84141,-1.482216 0,-0.06142 3.47545,-1.348392 7.72322,-2.859941 4.24777,-1.51155 8.235,-2.938918 8.86053,-3.171929 l 1.13731,-0.423656 -0.12625,0.854676 c -0.32109,2.173608 -2.69016,4.892162 -5.34315,6.131362 -0.79645,0.372017 -1.94183,0.803469 -2.54529,0.958783 -1.34971,0.347375 -3.91798,0.344275 -5.86496,-0.0071 z"
         id="path1126"
         inkscape:connector-curvature="0"
         transform="matrix(0.26458333,0,0,0.26458333,105.83486,140.53316)" />
    </g>
  </g>
</svg>
