<?xml version="1.0" encoding="UTF-8" standalone="no"?>
<!-- Generator: Adobe Illustrator 17.1.0, SVG Export Plug-In . SVG Version: 6.00 Build 0)  -->

<svg
   xmlns:dc="http://purl.org/dc/elements/1.1/"
   xmlns:cc="http://creativecommons.org/ns#"
   xmlns:rdf="http://www.w3.org/1999/02/22-rdf-syntax-ns#"
   xmlns:svg="http://www.w3.org/2000/svg"
   xmlns="http://www.w3.org/2000/svg"
   xmlns:sodipodi="http://sodipodi.sourceforge.net/DTD/sodipodi-0.dtd"
   xmlns:inkscape="http://www.inkscape.org/namespaces/inkscape"
   version="1.0"
   x="0px"
   y="0px"
   width="328.10156"
   height="148.04163"
   viewBox="0 0 328.10156 148.04163"
   xml:space="preserve"
   id="svg56"
   sodipodi:docname="solar_tu2.svg"
   inkscape:version="0.92.4 (5da689c313, 2019-01-14)"><metadata
   id="metadata62"><rdf:RDF><cc:Work
       rdf:about=""><dc:format>image/svg+xml</dc:format><dc:type
         rdf:resource="http://purl.org/dc/dcmitype/StillImage" /><dc:title></dc:title></cc:Work></rdf:RDF></metadata><defs
   id="defs60"><inkscape:path-effect
   effect="bspline"
   id="path-effect1377"
   is_visible="true"
   weight="33.333333"
   steps="2"
   helper_size="0"
   apply_no_weight="true"
   apply_with_weight="true"
   only_selected="false" /><inkscape:path-effect
   effect="bspline"
   id="path-effect978"
   is_visible="true"
   weight="33.333333"
   steps="2"
   helper_size="0"
   apply_no_weight="true"
   apply_with_weight="true"
   only_selected="false" /><inkscape:path-effect
   effect="bspline"
   id="path-effect973"
   is_visible="true"
   weight="33.333333"
   steps="2"
   helper_size="0"
   apply_no_weight="true"
   apply_with_weight="true"
   only_selected="false" /><inkscape:path-effect
   effect="bspline"
   id="path-effect969"
   is_visible="true"
   weight="33.333333"
   steps="2"
   helper_size="0"
   apply_no_weight="true"
   apply_with_weight="true"
   only_selected="false" /><inkscape:path-effect
   effect="bspline"
   id="path-effect965"
   is_visible="true"
   weight="33.333333"
   steps="2"
   helper_size="0"
   apply_no_weight="true"
   apply_with_weight="true"
   only_selected="false" /><inkscape:path-effect
   effect="bspline"
   id="path-effect943"
   is_visible="true"
   weight="33.333333"
   steps="2"
   helper_size="0"
   apply_no_weight="true"
   apply_with_weight="true"
   only_selected="false" /><inkscape:path-effect
   effect="bspline"
   id="path-effect932"
   is_visible="true"
   weight="33.333333"
   steps="2"
   helper_size="0"
   apply_no_weight="true"
   apply_with_weight="true"
   only_selected="false" /><inkscape:path-effect
   effect="bspline"
   id="path-effect901"
   is_visible="true"
   weight="33.333333"
   steps="2"
   helper_size="0"
   apply_no_weight="true"
   apply_with_weight="true"
   only_selected="false" /><inkscape:path-effect
   effect="spiro"
   id="path-effect981"
   is_visible="true" /><inkscape:path-effect
   effect="spiro"
   id="path-effect977"
   is_visible="true" />
	
	
<clipPath
   id="clipPath835"
   clipPathUnits="userSpaceOnUse"><path
     inkscape:connector-curvature="0"
     id="path833"
     d="M 0,61.228 H 224.503 V 0 H 0 Z" /></clipPath><clipPath
   id="clipPath843"
   clipPathUnits="userSpaceOnUse"><path
     inkscape:connector-curvature="0"
     id="path841"
     d="M 0,61.2285 H 224.503 V 0 H 0 Z" /></clipPath><clipPath
   id="clipPath867"
   clipPathUnits="userSpaceOnUse"><path
     inkscape:connector-curvature="0"
     id="path865"
     d="M 0,61.228 H 224.503 V 0 H 0 Z" /></clipPath><inkscape:path-effect
   effect="bspline"
   id="path-effect943-1"
   is_visible="true"
   weight="33.333333"
   steps="2"
   helper_size="0"
   apply_no_weight="true"
   apply_with_weight="true"
   only_selected="false" />
		
		
		
		
		
		
		
		
		
		
		
		
	</defs><sodipodi:namedview
   pagecolor="#ffffff"
   bordercolor="#666666"
   borderopacity="1"
   objecttolerance="10"
   gridtolerance="10"
   guidetolerance="10"
   inkscape:pageopacity="0"
   inkscape:pageshadow="2"
   inkscape:window-width="1920"
   inkscape:window-height="1017"
   id="namedview58"
   showgrid="false"
   inkscape:zoom="2.56"
   inkscape:cx="192.27737"
   inkscape:cy="130.8002"
   inkscape:window-x="1912"
   inkscape:window-y="-8"
   inkscape:window-maximized="1"
   inkscape:current-layer="svg56"
   showguides="true"
   inkscape:guide-bbox="true"
   fit-margin-top="0"
   fit-margin-left="0"
   fit-margin-right="0"
   fit-margin-bottom="0" />
<g
   id="Artboard"
   transform="translate(109.03933,8.3388102e-6)">
</g>

<g
   aria-label="Download Historical Wind Data"
   style="font-style:normal;font-variant:normal;font-weight:normal;font-stretch:normal;font-size:13.33333302px;line-height:1.25;font-family:Arial;-inkscape-font-specification:'Arial, Normal';font-variant-ligatures:normal;font-variant-caps:normal;font-variant-numeric:normal;font-feature-settings:normal;text-align:start;letter-spacing:0px;word-spacing:0px;writing-mode:lr-tb;text-anchor:start;fill:#000000;fill-opacity:1;stroke:none"
   id="text4854"
   transform="translate(-185.41013,-112.33625)" />

<text
   xml:space="preserve"
   style="font-style:normal;font-variant:normal;font-weight:normal;font-stretch:normal;font-size:24px;line-height:1.25;font-family:Arial;-inkscape-font-specification:'Arial, Normal';font-variant-ligatures:normal;font-variant-caps:normal;font-variant-numeric:normal;font-feature-settings:normal;text-align:start;letter-spacing:0px;word-spacing:0px;writing-mode:lr-tb;text-anchor:start;fill:#32e0c4;fill-opacity:1;stroke:none;"
   id="text846"
   y="147.76038"
   x="1.0783978"><tspan
     sodipodi:role="line"
     id="tspan844"
     x="1.0783978"
     y="147.76038">Download Historical Irradiation</tspan></text>



<path
   style="opacity:1;fill:#000000;fill-opacity:1;fill-rule:evenodd;stroke:#000000;stroke-width:0.08455588;stroke-linecap:round;stroke-linejoin:round;stroke-miterlimit:4;stroke-dasharray:none;stroke-dashoffset:0;stroke-opacity:1;paint-order:stroke fill markers"
   d="m -210.15288,-30.742482 c -0.0775,-0.117983 -0.13562,-0.219866 -0.12908,-0.226407 0.009,-0.0093 0.36903,0.204157 0.4298,0.254998 0.0207,0.01733 -0.0976,0.185923 -0.13048,0.185923 -0.0161,0 -0.0927,-0.09653 -0.17024,-0.214514 z"
   id="path926"
   inkscape:connector-curvature="0" /><circle
   id="circle3-7"
   r="55"
   cy="-67.601753"
   cx="-159.26051"
   style="opacity:1;fill:#32e0c4;fill-opacity:1"
   transform="rotate(175.53565)" /><g
   id="g1420"
   transform="matrix(0.9494184,0,0,0.9494184,378.02902,-112.82663)"><path
     inkscape:connector-curvature="0"
     id="path903"
     d="m -236.13829,155.47005 a 12.027346,11.017915 89.999999 0 1 4.5751,-12.62193 12.027346,11.017915 89.999999 0 1 12.43468,0.07 12.027346,11.017915 89.999999 0 1 4.45567,12.67275"
     style="fill:none;fill-rule:evenodd;stroke:#e2e4e5;stroke-width:2.07747841;stroke-miterlimit:4;stroke-dasharray:none;stroke-opacity:1" /><path
     transform="matrix(0.84829662,0,0,0.84829662,-68.357323,125.81951)"
     inkscape:original-d="m -205.56641,8.1002196 c 2.86559,1.4312916 5.73017,2.8635834 8.59375,4.2968754 1.69348,0.422118 3.38642,0.845354 5.07813,1.269531 0.65177,-0.456539 1.30308,-0.912458 1.95312,-1.367188 0.87837,-1.853217 1.75882,-3.7119372 2.63672,-5.5664059 0.55403,-2.2456367 1.10777,-4.4931875 1.66016,-6.73828128 0.0986,0.09660516 0.19631,0.1943125 0.29297,0.29296875 1.33563,3.02634383 2.67027,6.05368753 4.0039,9.08203123 0.71726,1.3012842 1.4333,2.6031662 2.14844,3.9062502 0.58709,0.129243 1.17288,0.259417 1.75781,0.390625 1.00884,-0.261087 2.01923,-0.521833 3.02735,-0.78125 2.27698,-1.204019 4.55829,-2.474959 6.83593,-3.7109377 0.68424,-0.3914207 1.36819,-0.78225 2.05079,-1.171875 -0.0965,0.2589654 -0.19432,0.5198334 -0.29297,0.78125 -0.94738,1.9938687 -1.88702,3.9703547 -2.83203,5.9570317 -0.35729,1.432159 -0.71515,2.863583 -1.07422,4.296875 -0.12932,0.911207 -0.25942,1.821916 -0.39063,2.734375 0.26174,0.618249 0.52184,1.235979 0.78125,1.855468 1.30412,0.715716 2.60517,1.431292 3.90625,2.148438 2.66956,0.649869 5.40465,1.301083 8.10547,1.953125 -0.38952,0.129174 -0.78025,0.259417 -1.17187,0.390625 -2.41526,1.305083 -4.81671,2.603167 -7.22657,3.90625 -1.95309,1.041182 -3.90525,2.082333 -5.85937,3.125 -1.00873,0.03157 -2.01723,0.0641 -3.02735,0.09766 -8.30826,-10e-4 -16.60056,-10e-4 -24.90234,0 -0.48734,-0.228892 -0.97556,-0.456729 -1.46484,-0.683594 -1.53032,-1.011019 -3.0589,-2.019229 -4.58985,-3.027343 -2.40822,-1.498628 -4.8167,-2.995792 -7.22656,-4.492188 0.294,-10e-4 0.58694,-10e-4 0.87891,0 3.63439,-1.785253 7.29266,-3.581729 10.9375,-5.371094 -0.0315,-0.456579 -0.0641,-0.912458 -0.0977,-1.367187 0.0335,-0.813153 0.0661,-1.628604 0.0977,-2.441406 -1.00683,-2.406781 -2.01723,-4.818709 -3.02735,-7.226563 -0.51972,-0.8471804 -1.04066,-1.6937083 -1.5625,-2.5390624 z"
     inkscape:path-effect="#path-effect932"
     inkscape:connector-curvature="0"
     id="path930"
     d="m -204.13392,8.8164668 c 1.4325,0.7162472 4.29708,2.1485372 6.57576,3.0762312 2.27869,0.927693 3.97163,1.350927 5.14358,1.334258 1.17196,-0.01667 1.82327,-0.472587 2.58719,-1.626764 0.76392,-1.154176 1.64436,-3.0128974 2.36019,-5.0629348 0.71583,-2.0500374 1.26957,-4.2975869 1.59492,-5.3712454 0.32535,-1.07365861 0.42306,-0.97595014 1.1391,0.586316 0.71605,1.5622662 2.05068,4.5896124 3.07613,6.7544877 1.02546,2.1648755 1.74149,3.4667585 2.39308,4.1831755 0.65158,0.716417 1.23737,0.846593 2.03448,0.781418 0.7971,-0.06517 1.80749,-0.32592 3.44323,-1.070366 1.63574,-0.744446 3.93068,-1.990274 5.41162,-2.8039883 1.48093,-0.8137144 2.16489,-1.2045419 2.45757,-1.2701346 0.29269,-0.065593 0.19487,0.1952733 -0.32809,1.3229159 -0.52296,1.127643 -1.4626,3.104129 -2.11389,4.81356 -0.65129,1.709431 -1.00914,3.140856 -1.2534,4.313134 -0.24427,1.172277 -0.37437,2.082986 -0.30929,2.848655 0.0651,0.765668 0.32518,1.3834 1.10722,2.051342 0.78205,0.667942 2.08309,1.383519 4.06949,2.063312 1.9864,0.679792 4.71971,1.338419 5.8756,1.72874 1.15589,0.390321 0.76516,0.520565 -0.63828,1.238588 -1.40345,0.718024 -3.8049,2.016105 -5.98637,3.188242 -2.18148,1.172137 -4.13364,2.21329 -5.61514,2.750711 -1.48151,0.537421 -2.49001,0.569954 -7.14921,0.586248 -4.65921,0.01629 -12.95151,0.01629 -17.34635,-0.09755 -4.39484,-0.113844 -4.88306,-0.341681 -5.89296,-0.960646 -1.0099,-0.618966 -2.53848,-1.627176 -4.50805,-2.880539 -1.96957,-1.253363 -4.37805,-2.750527 -5.43561,-3.499312 -1.05757,-0.748784 -0.76463,-0.748784 1.19865,-1.641206 1.96328,-0.892422 5.62155,-2.688895 7.42756,-3.812033 1.80601,-1.123138 1.77343,-1.579018 1.77345,-2.213018 2e-5,-0.633999 0.0327,-1.449449 -0.4551,-3.058969 -0.48776,-1.609521 -1.49816,-4.021447 -2.26306,-5.648856 -0.76491,-1.6274085 -1.28585,-2.4739363 -1.54618,-2.8969753 -0.26033,-0.4230391 -0.26033,-0.4230431 1.17216,0.2932041 z"
     style="fill:none;stroke:#a8a8a8;stroke-width:1px;stroke-linecap:butt;stroke-linejoin:miter;stroke-opacity:1" /><path
     inkscape:connector-curvature="0"
     id="path934"
     d="m -242.90561,151.80437 -4.40783,-2.83966 3.61433,-1.78273 c 1.98787,-0.9805 4.02839,-2.16647 4.53447,-2.6355 0.84684,-0.78482 0.9054,-0.99573 0.73496,-2.64712 -0.10186,-0.98689 -0.71406,-3.01761 -1.36045,-4.51271 -0.64639,-1.49509 -1.1005,-2.79311 -1.00913,-2.88448 0.0914,-0.0914 1.01937,0.25454 2.06222,0.7687 4.64692,2.29108 7.9954,2.80875 9.25531,1.43087 0.99789,-1.09135 1.75437,-2.68632 2.89965,-6.11373 l 1.0187,-3.04859 1.75532,3.91008 c 0.96543,2.15055 2.20398,4.45438 2.75233,5.11963 1.4483,1.75704 2.5855,1.65917 7.23485,-0.62266 2.05328,-1.00771 3.64948,-1.64145 3.5471,-1.4083 -1.28154,2.9187 -2.01019,5.01647 -2.456,7.07085 -0.49682,2.2894 -0.49623,2.56002 0.008,3.61733 0.64731,1.35742 2.20997,2.23988 6.17437,3.48677 l 2.79013,0.87756 -4.52058,2.37814 c -2.48633,1.30798 -4.5993,2.37815 -4.6955,2.37815 -0.0962,0 -0.1749,-0.58912 -0.1749,-1.30916 0,-6.55783 -4.51395,-12.28719 -10.40894,-13.21162 -3.7379,-0.58616 -6.95292,0.45352 -9.88577,3.19686 -2.66254,2.49049 -4.5454,7.22409 -4.16603,10.47362 0.10627,0.91029 0.02,1.17772 -0.3754,1.16451 -0.28235,-0.009 -2.49687,-1.295 -4.92119,-2.85681 z"
     style="opacity:1;fill:#ffffff;fill-opacity:1;fill-rule:evenodd;stroke:#a8a8a8;stroke-width:2.20472288;stroke-linecap:round;stroke-linejoin:round;stroke-miterlimit:4;stroke-dasharray:none;stroke-dashoffset:0;stroke-opacity:1;paint-order:stroke fill markers" /><path
     transform="matrix(0.84829662,0,0,0.84829662,-67.927647,127.69675)"
     inkscape:original-d="m -223.63281,34.955688 c 24.93589,-0.001 49.87079,-0.001 74.80468,0 0.68457,-0.001 1.30309,0.129209 1.95313,0.195313 0.39109,0.38909 0.84735,0.78025 1.26953,1.171875 2.43801,9.094024 4.87549,18.190834 7.31173,27.287751 1.70217,6.347863 3.40309,12.695772 5.10314,19.045157 0.0945,0.570384 0.29918,1.111843 0.44727,1.669265 0.0105,1.676113 10e-4,3.414218 0,5.122827 -0.54321,0.715565 -1.08678,1.431292 -1.63167,2.148437 -2.44421,-10e-4 -4.88181,-10e-4 -7.32422,0 -30.90358,-10e-4 -61.78285,-10e-4 -92.67578,0 -0.51985,-10e-4 -1.04067,-10e-4 -1.5625,0 -0.84698,-0.979437 -1.69171,-1.954125 -2.53906,-2.929687 0.001,-0.586892 0.001,-1.172875 0,-1.757813 0.001,-1.593329 0.001,-3.191104 0,-4.785156 0.55404,-1.627584 1.10777,-3.256208 1.66015,-4.882812 3.96943,-13.402561 7.94371,-26.823917 11.91407,-40.234375 0.0661,-0.521787 0.1312,-1.042667 0.19531,-1.5625 0.35831,-0.163415 0.71714,-0.326521 1.07422,-0.488282 z"
     inkscape:path-effect="#path-effect943"
     inkscape:connector-curvature="0"
     id="path941"
     d="m -211.3433,35.036796 c 12.64638,-0.08111 37.58128,-0.08111 50.38707,-0.04722 12.80579,0.03388 13.43108,0.09641 13.9587,0.315884 0.52762,0.219471 0.96892,0.626831 2.3989,5.369296 1.42998,4.742465 3.86746,13.839275 5.93667,21.561664 2.06921,7.722389 3.77013,14.070298 4.69521,17.522733 0.92507,3.452435 1.07415,4.008794 1.14878,5.125403 0.0746,1.116609 0.0746,2.854714 -0.19704,4.066743 -0.27168,1.21203 -0.81525,1.927756 -2.30973,2.286386 -1.49447,0.358631 -3.93207,0.358631 -20.60506,0.358631 -16.673,0 -47.55227,0 -63.25866,0 -15.70639,0 -16.22721,0 -16.91215,-0.489257 -0.68493,-0.489257 -1.52966,-1.463946 -1.95281,-2.245634 -0.42314,-0.781688 -0.42314,-1.367671 -0.42314,-2.456805 0,-1.089133 0,-2.686908 0.27672,-4.297827 0.27673,-1.610919 0.83046,-3.239543 3.09133,-10.754121 2.26088,-7.514578 6.23517,-20.935932 8.25329,-27.902013 2.01812,-6.966081 2.08323,-7.48696 2.29497,-7.828304 0.21174,-0.341344 0.57057,-0.504449 13.21695,-0.585556 z"
     style="fill:none;stroke:#a8a8a8;stroke-width:3.53600001;stroke-linecap:butt;stroke-linejoin:miter;stroke-miterlimit:4;stroke-dasharray:none;stroke-opacity:1" /><path
     transform="matrix(0.6247241,0,0,0.6247241,-109.42829,141.84493)"
     inkscape:original-d="m -223.63281,34.955688 c 24.93589,-0.001 49.87079,-0.001 74.80468,0 0.68457,-0.001 1.30309,0.129209 1.95313,0.195313 0.39109,0.38909 0.84735,0.78025 1.26953,1.171875 2.43801,9.094024 4.87549,18.190834 7.31173,27.287751 1.70217,6.347863 3.40309,12.695772 5.10314,19.045157 0.0945,0.570384 0.29918,1.111843 0.44727,1.669265 0.0105,1.676113 10e-4,3.414218 0,5.122827 -0.54321,0.715565 -1.08678,1.431292 -1.63167,2.148437 -2.44421,-10e-4 -4.88181,-10e-4 -7.32422,0 -30.90358,-10e-4 -61.78285,-10e-4 -92.67578,0 -0.51985,-10e-4 -1.04067,-10e-4 -1.5625,0 -0.84698,-0.979437 -1.69171,-1.954125 -2.53906,-2.929687 0.001,-0.586892 0.001,-1.172875 0,-1.757813 0.001,-1.593329 0.001,-3.191104 0,-4.785156 0.55404,-1.627584 1.10777,-3.256208 1.66015,-4.882812 3.96943,-13.402561 7.94371,-26.823917 11.91407,-40.234375 0.0661,-0.521787 0.1312,-1.042667 0.19531,-1.5625 0.35831,-0.163415 0.71714,-0.326521 1.07422,-0.488282 z"
     inkscape:path-effect="#path-effect943-1"
     inkscape:connector-curvature="0"
     id="path941-2"
     d="m -211.3433,35.036796 c 12.64638,-0.08111 37.58128,-0.08111 50.38707,-0.04722 12.80579,0.03388 13.43108,0.09641 13.9587,0.315884 0.52762,0.219471 0.96892,0.626831 2.3989,5.369296 1.42998,4.742465 3.86746,13.839275 5.93667,21.561664 2.06921,7.722389 3.77013,14.070298 4.69521,17.522733 0.92507,3.452435 1.07415,4.008794 1.14878,5.125403 0.0746,1.116609 0.0746,2.854714 -0.19704,4.066743 -0.27168,1.21203 -0.81525,1.927756 -2.30973,2.286386 -1.49447,0.358631 -3.93207,0.358631 -20.60506,0.358631 -16.673,0 -47.55227,0 -63.25866,0 -15.70639,0 -16.22721,0 -16.91215,-0.489257 -0.68493,-0.489257 -1.52966,-1.463946 -1.95281,-2.245634 -0.42314,-0.781688 -0.42314,-1.367671 -0.42314,-2.456805 0,-1.089133 0,-2.686908 0.27672,-4.297827 0.27673,-1.610919 0.83046,-3.239543 3.09133,-10.754121 2.26088,-7.514578 6.23517,-20.935932 8.25329,-27.902013 2.01812,-6.966081 2.08323,-7.48696 2.29497,-7.828304 0.21174,-0.341344 0.57057,-0.504449 13.21695,-0.585556 z"
     style="fill:none;stroke:#a8a8a8;stroke-width:4.80144262;stroke-linecap:butt;stroke-linejoin:miter;stroke-miterlimit:4;stroke-dasharray:none;stroke-opacity:1" /><path
     transform="matrix(0.84829662,0,0,0.84829662,67.834061,110.96533)"
     inkscape:original-d="m -358.00781,63.666626 c -3.62631,13.536283 -7.25361,27.073566 -10.88191,40.611854"
     inkscape:path-effect="#path-effect965"
     inkscape:connector-curvature="0"
     id="path963"
     d="m -358.00781,63.666626 c -3.62699,13.536102 -7.25429,27.073384 -10.88191,40.611854"
     style="fill:none;stroke:#a8a8a8;stroke-width:1.89999998;stroke-linecap:butt;stroke-linejoin:miter;stroke-miterlimit:4;stroke-dasharray:none;stroke-opacity:1" /><path
     transform="matrix(0.84829662,0,0,0.84829662,67.834061,110.96533)"
     inkscape:original-d="m -344.14063,63.080688 c -0.97556,13.73598 -1.95212,27.472959 -2.92968,41.210942"
     inkscape:path-effect="#path-effect969"
     inkscape:connector-curvature="0"
     id="path967"
     d="m -344.14063,63.080688 c -0.97648,13.735914 -1.95304,27.472893 -2.92968,41.210942"
     style="fill:none;stroke:#a8a8a8;stroke-width:1.89999998;stroke-linecap:butt;stroke-linejoin:miter;stroke-miterlimit:4;stroke-dasharray:none;stroke-opacity:1" /><path
     transform="matrix(0.84829662,0,0,0.84829662,67.834061,110.96533)"
     inkscape:original-d="m -331.44531,63.080688 c 1.23798,13.605771 2.47496,27.212542 3.71093,40.820312"
     inkscape:path-effect="#path-effect973"
     inkscape:connector-curvature="0"
     id="path971"
     d="m -331.44531,63.080688 c 1.23689,13.60587 2.47387,27.212641 3.71093,40.820312"
     style="fill:none;stroke:#a8a8a8;stroke-width:1.89999998;stroke-linecap:butt;stroke-linejoin:miter;stroke-miterlimit:4;stroke-dasharray:none;stroke-opacity:1" /><path
     transform="matrix(0.87628294,0,0,0.87628294,76.552454,109.15972)"
     inkscape:original-d="m -378.125,82.416626 c 22.20152,-10e-4 44.40204,-10e-4 66.60156,0"
     inkscape:path-effect="#path-effect978"
     inkscape:connector-curvature="0"
     id="path975"
     d="m -378.125,82.416626 c 22.20152,0 44.40204,0 66.60156,0"
     style="fill:none;stroke:#a8a8a8;stroke-width:1.89999998;stroke-linecap:butt;stroke-linejoin:miter;stroke-miterlimit:4;stroke-dasharray:none;stroke-opacity:1" /><rect
     ry="3.104856"
     rx="2.5751827"
     y="205.02899"
     x="-229.03529"
     height="13.492182"
     width="7.2900491"
     id="rect984"
     style="opacity:1;fill:#e2e4e5;fill-opacity:1;fill-rule:evenodd;stroke:#a8a8a8;stroke-width:1.72378612;stroke-linecap:round;stroke-linejoin:round;stroke-miterlimit:4;stroke-dasharray:none;stroke-dashoffset:0;stroke-opacity:1;paint-order:stroke fill markers" /><path
     inkscape:connector-curvature="0"
     id="path1379"
     d="m -235.86076,154.38165 c -0.0612,-1.06494 0.0496,-2.40866 0.29611,-3.59175 0.73606,-3.53249 2.83668,-6.55217 5.629,-8.0918 1.53939,-0.8488 2.68493,-1.14979 4.39364,-1.15446 1.21077,-0.003 1.90357,0.10492 2.91239,0.45516 1.53212,0.53182 2.84192,1.40648 4.06776,2.71638 1.28726,1.37554 2.17965,2.92148 2.7592,4.78003 0.43107,1.38229 0.55178,2.16207 0.59506,3.84383 0.0215,0.83157 0.018,1.60083 -0.007,1.70945 l -0.0463,0.19747 h -10.27481 -10.27482 z"
     style="opacity:1;fill:#ffffff;fill-opacity:1;fill-rule:evenodd;stroke:#a8a8a8;stroke-width:0.64099997;stroke-linecap:round;stroke-linejoin:round;stroke-miterlimit:4;stroke-dasharray:none;stroke-dashoffset:0;stroke-opacity:1;paint-order:stroke fill markers" /><path
     inkscape:connector-curvature="0"
     id="path1381"
     d="m -252.79182,180.14346 c 0.0507,-0.13584 1.04865,-3.52092 2.21771,-7.52238 l 2.12557,-7.27539 h 5.79635 5.79635 l -0.2051,0.73242 c -0.11281,0.40283 -1.01688,3.76465 -2.00904,7.4707 l -1.80394,6.73828 -6.00502,0.0517 c -4.77627,0.0411 -5.98616,0.001 -5.91288,-0.19532 z"
     style="opacity:1;fill:#ffffff;fill-opacity:1;fill-rule:evenodd;stroke:#a8a8a8;stroke-width:0.72500002;stroke-linecap:round;stroke-linejoin:round;stroke-miterlimit:4;stroke-dasharray:none;stroke-dashoffset:0;stroke-opacity:1;paint-order:stroke fill markers" /><path
     inkscape:connector-curvature="0"
     id="path1383"
     d="m -254.49469,197.42629 c -2.22363,-0.0962 -2.31633,-0.20924 -2.20232,-2.68593 0.0802,-1.74305 0.25849,-2.5103 1.65628,-7.12905 l 1.56638,-5.17578 5.98125,-0.0516 c 3.28969,-0.0284 5.98125,0.0142 5.98125,0.0946 0,0.0805 -0.89919,3.50946 -1.99821,7.62001 l -1.9982,7.47373 -3.71469,-0.0393 c -2.04307,-0.0216 -4.41536,-0.0696 -5.27174,-0.10665 z"
     style="opacity:1;fill:#ffffff;fill-opacity:1;fill-rule:evenodd;stroke:#a8a8a8;stroke-width:0.72500002;stroke-linecap:round;stroke-linejoin:round;stroke-miterlimit:4;stroke-dasharray:none;stroke-dashoffset:0;stroke-opacity:1;paint-order:stroke fill markers" /><path
     inkscape:connector-curvature="0"
     id="path1385"
     d="m -243.55718,197.1328 c 0.0608,-0.2417 0.97027,-3.64746 2.02106,-7.56836 l 1.91052,-7.12891 6.7013,-0.0514 6.7013,-0.0514 -0.1139,1.2233 c -0.0626,0.67282 -0.31121,4.10172 -0.55236,7.61978 l -0.43846,6.39649 h -8.17001 -8.17 z"
     style="opacity:1;fill:#ffffff;fill-opacity:1;fill-rule:evenodd;stroke:#a8a8a8;stroke-width:0.72500002;stroke-linecap:round;stroke-linejoin:round;stroke-miterlimit:4;stroke-dasharray:none;stroke-dashoffset:0;stroke-opacity:1;paint-order:stroke fill markers" /><path
     inkscape:connector-curvature="0"
     id="path1387"
     d="m -238.97279,180.1778 c 0,-0.1628 3.41322,-13.0701 3.83183,-14.49032 0.0925,-0.31392 0.50587,-0.34179 5.06805,-0.34179 h 4.96731 l -0.003,0.53711 c -0.002,0.29541 -0.22004,3.48144 -0.48522,7.08007 -0.26518,3.59864 -0.48353,6.74073 -0.48522,6.98243 l -0.003,0.43945 h -6.44531 c -4.40826,0 -6.44532,-0.0654 -6.44532,-0.20695 z"
     style="opacity:1;fill:#ffffff;fill-opacity:1;fill-rule:evenodd;stroke:#a8a8a8;stroke-width:0.72500002;stroke-linecap:round;stroke-linejoin:round;stroke-miterlimit:4;stroke-dasharray:none;stroke-dashoffset:0;stroke-opacity:1;paint-order:stroke fill markers" /><path
     inkscape:connector-curvature="0"
     id="path1389"
     d="m -224.32435,180.23564 c 0,-0.082 0.21946,-3.2241 0.48768,-6.98242 0.26822,-3.75832 0.48795,-7.07501 0.48828,-7.37042 l 6e-4,-0.53711 h 4.57788 4.57788 l 0.11079,0.83007 c 0.10749,0.80539 1.28033,13.6517 1.28033,14.02375 0,0.11259 -2.2597,0.18524 -5.76172,0.18524 -3.16895,0 -5.76172,-0.0671 -5.76172,-0.14911 z"
     style="opacity:1;fill:#ffffff;fill-opacity:1;fill-rule:evenodd;stroke:#a8a8a8;stroke-width:0.72500002;stroke-linecap:round;stroke-linejoin:round;stroke-miterlimit:4;stroke-dasharray:none;stroke-dashoffset:0;stroke-opacity:1;paint-order:stroke fill markers" /><path
     inkscape:connector-curvature="0"
     id="path1391"
     d="m -225.49316,196.93748 c 0.002,-0.34912 0.22003,-3.5791 0.48522,-7.17773 0.26518,-3.59863 0.48353,-6.74072 0.48521,-6.98242 l 0.003,-0.43946 h 5.94298 5.94297 l 0.11799,1.02539 c 0.13054,1.13456 1.27731,13.72292 1.27731,14.02137 0,0.11652 -2.70133,0.18762 -7.12891,0.18762 h -7.1289 z"
     style="opacity:1;fill:#ffffff;fill-opacity:1;fill-rule:evenodd;stroke:#a8a8a8;stroke-width:0.72500002;stroke-linecap:round;stroke-linejoin:round;stroke-miterlimit:4;stroke-dasharray:none;stroke-dashoffset:0;stroke-opacity:1;paint-order:stroke fill markers" /><path
     inkscape:connector-curvature="0"
     id="path1393"
     d="m -211.0431,180.10186 c 0,-0.44527 -1.15548,-13.20673 -1.27006,-14.02695 l -0.10277,-0.73561 5.2191,0.052 5.21909,0.052 0.45873,1.46485 c 0.25231,0.80566 1.15803,4.01367 2.01272,7.1289 0.8547,3.11524 1.60276,5.81787 1.66238,6.00586 0.10177,0.32096 -0.29738,0.3418 -6.5454,0.3418 -5.67895,0 -6.65379,-0.0414 -6.65379,-0.28289 z"
     style="opacity:1;fill:#ffffff;fill-opacity:1;fill-rule:evenodd;stroke:#a8a8a8;stroke-width:0.72500002;stroke-linecap:round;stroke-linejoin:round;stroke-miterlimit:4;stroke-dasharray:none;stroke-dashoffset:0;stroke-opacity:1;paint-order:stroke fill markers" /><path
     inkscape:connector-curvature="0"
     id="path1395"
     d="m -209.4806,197.28697 c 0,-0.38635 -1.12841,-12.85568 -1.26886,-14.02136 l -0.11178,-0.92774 h 6.80948 6.80949 l 1.60465,6.03426 c 1.42955,5.3758 1.59834,6.19099 1.54685,7.4707 l -0.0578,1.43645 -2.73437,0.12265 c -1.50391,0.0675 -4.95362,0.13338 -7.66602,0.14649 -4.20526,0.0203 -4.93164,-0.0182 -4.93164,-0.26145 z"
     style="opacity:1;fill:#ffffff;fill-opacity:1;fill-rule:evenodd;stroke:#a8a8a8;stroke-width:0.72500002;stroke-linecap:round;stroke-linejoin:round;stroke-miterlimit:4;stroke-dasharray:none;stroke-dashoffset:0;stroke-opacity:1;paint-order:stroke fill markers" /><path
     inkscape:connector-curvature="0"
     id="path1397"
     d="m -268.08301,202.7829 c -1.12712,-1.72021 -0.42039,-5.02006 4.9327,-23.03143 2.80952,-9.45313 5.29202,-17.91388 5.51667,-18.80169 l 0.40845,-1.61418 20.18005,-0.2957 c 17.96232,-0.2632 43.31795,-0.0307 43.74979,0.40111 0.31537,0.31537 2.50602,8.03361 6.72324,23.68778 4.69085,17.4123 5.0433,19.59298 3.27534,20.26516 -0.62826,0.23886 -16.50636,0.38096 -42.56912,0.38096 h -41.56713 z m 76.25183,-3.42431 c 1.63016,-1.89535 1.34037,-4.32482 -2.00506,-16.80966 -3.92872,-14.66165 -5.16954,-18.66174 -6.07809,-19.59434 -0.74043,-0.76002 -1.35792,-0.78453 -22.72313,-0.90204 -21.26863,-0.11697 -26.90696,0.0209 -27.98004,0.68408 -0.73059,0.45153 -9.02874,28.6188 -9.29568,31.5533 -0.25332,2.7848 0.26017,4.42212 1.7558,5.59858 0.96638,0.76016 1.58632,0.77268 33.18417,0.67036 l 32.19938,-0.10428 z"
     style="opacity:1;fill:#e2e4e5;fill-opacity:1;fill-rule:evenodd;stroke:#a8a8a8;stroke-width:1.28299999;stroke-linecap:round;stroke-linejoin:round;stroke-miterlimit:4;stroke-dasharray:none;stroke-dashoffset:0;stroke-opacity:1;paint-order:stroke fill markers" /><rect
     ry="2.714422"
     rx="2.5751827"
     y="216.99796"
     x="-250.24272"
     height="9.9409761"
     width="49.70488"
     id="rect982"
     style="opacity:1;fill:#e2e4e5;fill-opacity:1;fill-rule:evenodd;stroke:#a8a8a8;stroke-width:1.6117636;stroke-linecap:round;stroke-linejoin:round;stroke-miterlimit:4;stroke-dasharray:none;stroke-dashoffset:0;stroke-opacity:1;paint-order:stroke fill markers" /></g></svg>