<?xml version="1.0" encoding="UTF-8" standalone="no"?>
<!-- Generator: Adobe Illustrator 18.1.1, SVG Export Plug-In . SVG Version: 6.00 Build 0)  -->

<svg
   xmlns:dc="http://purl.org/dc/elements/1.1/"
   xmlns:cc="http://creativecommons.org/ns#"
   xmlns:rdf="http://www.w3.org/1999/02/22-rdf-syntax-ns#"
   xmlns:svg="http://www.w3.org/2000/svg"
   xmlns="http://www.w3.org/2000/svg"
   xmlns:sodipodi="http://sodipodi.sourceforge.net/DTD/sodipodi-0.dtd"
   xmlns:inkscape="http://www.inkscape.org/namespaces/inkscape"
   version="1.1"
   id="Capa_1"
   x="0px"
   y="0px"
   viewBox="0 0 110 110"
   xml:space="preserve"
   sodipodi:docname="stocks.svg"
   width="110"
   height="110"
   inkscape:version="0.92.4 (5da689c313, 2019-01-14)"><metadata
   id="metadata4211"><rdf:RDF><cc:Work
       rdf:about=""><dc:format>image/svg+xml</dc:format><dc:type
         rdf:resource="http://purl.org/dc/dcmitype/StillImage" /><dc:title></dc:title></cc:Work></rdf:RDF></metadata><defs
   id="defs4209" /><sodipodi:namedview
   pagecolor="#ffffff"
   bordercolor="#666666"
   borderopacity="1"
   objecttolerance="10"
   gridtolerance="10"
   guidetolerance="10"
   inkscape:pageopacity="0"
   inkscape:pageshadow="2"
   inkscape:window-width="1920"
   inkscape:window-height="1017"
   id="namedview4207"
   showgrid="false"
   fit-margin-top="0"
   fit-margin-left="0"
   fit-margin-right="0"
   fit-margin-bottom="0"
   inkscape:zoom="2.9297664"
   inkscape:cx="-19.465933"
   inkscape:cy="30.019519"
   inkscape:window-x="-8"
   inkscape:window-y="-8"
   inkscape:window-maximized="1"
   inkscape:current-layer="Capa_1" />
<circle
   id="circle3"
   r="55"
   cy="55"
   cx="55"
   style="fill:#00d0f4;fill-opacity:1" /><g
   id="g4174"
   transform="matrix(0.47887288,0,0,0.47887288,18.819642,18.105372)"
   style="fill:#fdfdff;fill-opacity:1;stroke:#a8a8a8;stroke-opacity:1">
	<path
   style="fill:#fdfdff;fill-opacity:1;stroke:#a8a8a8;stroke-opacity:1"
   d="M 147.668,153.307 H 0 V 7.799 H 11.934 V 88.513 L 85.13,35.169 110.149,45.891 144.596,14.577 137.812,7.799 h 23.295 V 31.088 L 153.04,23.021 112.507,59.872 86.657,48.803 11.934,103.281 v 38.087 H 25.431 V 107.72 h 11.934 v 33.647 H 47.49 V 93.889 h 11.934 v 47.478 H 69.55 v -61.31 h 11.934 v 61.304 h 10.12 V 73.136 h 11.934 v 68.231 h 10.126 V 86.979 h 11.934 v 54.388 h 10.126 V 59.305 h 11.934 v 94.002 z"
   id="path4172"
   inkscape:connector-curvature="0" />
</g>
<g
   id="g4176"
   transform="translate(-27.259117,-23.845879)">
</g>
<g
   id="g4178"
   transform="translate(-27.259117,-23.845879)">
</g>
<g
   id="g4180"
   transform="translate(-27.259117,-23.845879)">
</g>
<g
   id="g4182"
   transform="translate(-27.259117,-23.845879)">
</g>
<g
   id="g4184"
   transform="translate(-27.259117,-23.845879)">
</g>
<g
   id="g4186"
   transform="translate(-27.259117,-23.845879)">
</g>
<g
   id="g4188"
   transform="translate(-27.259117,-23.845879)">
</g>
<g
   id="g4190"
   transform="translate(-27.259117,-23.845879)">
</g>
<g
   id="g4192"
   transform="translate(-27.259117,-23.845879)">
</g>
<g
   id="g4194"
   transform="translate(-27.259117,-23.845879)">
</g>
<g
   id="g4196"
   transform="translate(-27.259117,-23.845879)">
</g>
<g
   id="g4198"
   transform="translate(-27.259117,-23.845879)">
</g>
<g
   id="g4200"
   transform="translate(-27.259117,-23.845879)">
</g>
<g
   id="g4202"
   transform="translate(-27.259117,-23.845879)">
</g>
<g
   id="g4204"
   transform="translate(-27.259117,-23.845879)">
</g>
</svg>