<?xml version="1.0" encoding="UTF-8" standalone="no"?>
<!-- Generator: Adobe Illustrator 17.1.0, SVG Export Plug-In . SVG Version: 6.00 Build 0)  -->

<svg
   xmlns:dc="http://purl.org/dc/elements/1.1/"
   xmlns:cc="http://creativecommons.org/ns#"
   xmlns:rdf="http://www.w3.org/1999/02/22-rdf-syntax-ns#"
   xmlns:svg="http://www.w3.org/2000/svg"
   xmlns="http://www.w3.org/2000/svg"
   xmlns:sodipodi="http://sodipodi.sourceforge.net/DTD/sodipodi-0.dtd"
   xmlns:inkscape="http://www.inkscape.org/namespaces/inkscape"
   version="1.0"
   x="0px"
   y="0px"
   width="328.10156"
   height="148.04163"
   viewBox="0 0 328.10156 148.04163"
   xml:space="preserve"
   id="svg56"
   sodipodi:docname="wind_tu1.svg"
   inkscape:version="0.92.4 (5da689c313, 2019-01-14)"><metadata
   id="metadata62"><rdf:RDF><cc:Work
       rdf:about=""><dc:format>image/svg+xml</dc:format><dc:type
         rdf:resource="http://purl.org/dc/dcmitype/StillImage" /><dc:title /></cc:Work></rdf:RDF></metadata><defs
   id="defs60"><inkscape:path-effect
   effect="spiro"
   id="path-effect981"
   is_visible="true" /><inkscape:path-effect
   effect="spiro"
   id="path-effect977"
   is_visible="true" />
	
	
</defs><sodipodi:namedview
   pagecolor="#ffffff"
   bordercolor="#666666"
   borderopacity="1"
   objecttolerance="10"
   gridtolerance="10"
   guidetolerance="10"
   inkscape:pageopacity="0"
   inkscape:pageshadow="2"
   inkscape:window-width="1920"
   inkscape:window-height="1137"
   id="namedview58"
   showgrid="false"
   inkscape:zoom="2.56"
   inkscape:cx="159.61021"
   inkscape:cy="66.689541"
   inkscape:window-x="-8"
   inkscape:window-y="-8"
   inkscape:window-maximized="1"
   inkscape:current-layer="svg56"
   showguides="true"
   inkscape:guide-bbox="true"
   fit-margin-top="0"
   fit-margin-left="0"
   fit-margin-right="0"
   fit-margin-bottom="0" />
<g
   id="Artboard"
   transform="translate(109.03933,8.3388102e-6)">
</g>
<circle
   id="circle3"
   r="55"
   cy="-67.601753"
   cx="-159.2605"
   style="fill:#222831;fill-opacity:0.94117647"
   transform="rotate(175.53565)" /><g
   id="g53"
   style="stroke:#a8a8a8;stroke-opacity:1"
   transform="matrix(1.2845503,0,0,1.2845503,93.972235,-15.34305)">
		<g
   id="g7"
   style="stroke:#a8a8a8;stroke-opacity:1">
			<path
   inkscape:connector-curvature="0"
   id="path5"
   d="M 57.645,49.979 C 56.939,50.607 56.019,51 55,51 53.981,51 53.061,50.607 52.355,49.979 L 47,83 h 16 z"
   style="fill:#e2e4e5;stroke:#a8a8a8;stroke-opacity:1" />
		</g>
		<g
   id="g11"
   style="stroke:#a8a8a8;stroke-opacity:1">
			<path
   inkscape:connector-curvature="0"
   id="path9"
   d="m 55,51 c -1.019,0 -1.939,-0.393 -2.645,-1.021 L 47,83 h 8 z"
   style="fill:#ffffff;stroke:#a8a8a8;stroke-opacity:1" />
		</g>
		<g
   id="g15"
   style="stroke:#a8a8a8;stroke-opacity:1">
			<path
   inkscape:connector-curvature="0"
   id="path13"
   d="m 58.998,47 c 2.086,-8.035 -0.053,-20.028 -3.582,-23.274 -0.36,-0.331 -0.821,-0.525 -1.288,-0.381 -0.467,0.144 -0.802,0.554 -0.849,1.041 L 51.077,47 Z"
   style="fill:#ffffff;stroke:#a8a8a8;stroke-opacity:1" />
		</g>
		<g
   id="g19"
   style="stroke:#a8a8a8;stroke-opacity:1">
			<path
   inkscape:connector-curvature="0"
   id="path17"
   d="m 53.071,50.502 c 6.031,5.704 17.568,9.617 22.114,8.091 0.463,-0.155 0.856,-0.466 0.955,-0.944 0.099,-0.478 -0.099,-0.97 -0.502,-1.246 L 56.893,43.563 Z"
   style="fill:#ffffff;stroke:#a8a8a8;stroke-opacity:1" />
		</g>
		<g
   id="g23"
   style="stroke:#a8a8a8;stroke-opacity:1">
			<path
   inkscape:connector-curvature="0"
   id="path21"
   d="m 52.863,43.621 c -7.906,2.531 -16.899,10.748 -17.757,15.466 -0.087,0.481 -0.005,0.975 0.366,1.292 0.371,0.318 0.897,0.381 1.333,0.161 L 57.096,50.316 Z"
   style="fill:#ffffff;stroke:#a8a8a8;stroke-opacity:1" />
		</g>
		<g
   id="g27"
   style="stroke:#a8a8a8;stroke-opacity:1">
			<path
   inkscape:connector-curvature="0"
   id="path25"
   d="M 71,87 H 39 c 0,-2.209 1.791,-4 4,-4 h 24 c 2.209,0 4,1.791 4,4 z"
   style="fill:#ffffff;stroke:#a8a8a8;stroke-opacity:1" />
		</g>
		<g
   id="g31"
   style="stroke:#a8a8a8;stroke-opacity:1">
			<path
   inkscape:connector-curvature="0"
   id="path29"
   d="M 45.2,36.838 C 45.2,39.141 43.341,41 41.037,41 H 27.163 C 24.859,41 23,39.141 23,36.838 c 0,-2.843 2.775,-4.149 4.301,-4.149 0.638,-3.177 3.441,-5.564 6.799,-5.564 3.358,0 6.161,2.386 6.799,5.564 1.526,0 4.301,1.307 4.301,4.149 z"
   style="fill:#f0f1f1;stroke:#a8a8a8;stroke-opacity:1" />
		</g>
		<g
   id="g35"
   style="stroke:#a8a8a8;stroke-opacity:1">
			<path
   inkscape:connector-curvature="0"
   id="path33"
   d="M 87,42.838 C 87,45.141 85.141,47 82.837,47 H 68.962 C 66.659,47 64.8,45.141 64.8,42.838 c 0,-2.843 2.775,-4.149 4.301,-4.149 0.638,-3.177 3.441,-5.564 6.799,-5.564 3.358,0 6.16,2.386 6.799,5.564 1.526,0 4.301,1.307 4.301,4.149 z"
   style="fill:#f0f1f1;stroke:#a8a8a8;stroke-opacity:1" />
		</g>
		<g
   id="g39"
   style="stroke:#a8a8a8;stroke-opacity:1">
			<path
   inkscape:connector-curvature="0"
   id="path37"
   d="m 34.1,27.125 c -3.358,0 -6.161,2.386 -6.799,5.564 -1.526,0 -4.301,1.305 -4.301,4.148 0,2.26 1.793,4.082 4.037,4.15 L 38.918,29.106 C 37.669,27.89 35.98,27.125 34.1,27.125 Z"
   style="fill:#ffffff;stroke:#a8a8a8;stroke-opacity:1" />
		</g>
		<g
   id="g43"
   style="stroke:#a8a8a8;stroke-opacity:1">
			<path
   inkscape:connector-curvature="0"
   id="path41"
   d="m 75.9,33.138 c -3.358,0 -6.161,2.386 -6.799,5.564 -1.526,0 -4.301,1.305 -4.301,4.148 0,2.26 1.793,4.082 4.037,4.15 L 80.718,35.119 C 79.469,33.903 77.78,33.138 75.9,33.138 Z"
   style="fill:#ffffff;stroke:#a8a8a8;stroke-opacity:1" />
		</g>
		<g
   id="g47"
   style="stroke:#a8a8a8;stroke-opacity:1">
			<circle
   id="circle45"
   r="4"
   cy="47"
   cx="55"
   style="fill:#5b5c5f;stroke:#a8a8a8;stroke-opacity:1" />
		</g>
		<g
   id="g51"
   style="stroke:#a8a8a8;stroke-opacity:1">
			<path
   inkscape:connector-curvature="0"
   id="path49"
   d="m 55,43 c -2.209,0 -4,1.791 -4,4 0,1.111 0.454,2.115 1.185,2.839 l 5.654,-5.654 C 57.115,43.454 56.111,43 55,43 Z"
   style="fill:#9e9fa0;stroke:#a8a8a8;stroke-opacity:1" />
		</g>
	</g>
<g
   aria-label="Download Historical Wind Data"
   style="font-style:normal;font-variant:normal;font-weight:normal;font-stretch:normal;font-size:13.33333302px;line-height:1.25;font-family:Arial;-inkscape-font-specification:'Arial, Normal';font-variant-ligatures:normal;font-variant-caps:normal;font-variant-numeric:normal;font-feature-settings:normal;text-align:start;letter-spacing:0px;word-spacing:0px;writing-mode:lr-tb;text-anchor:start;fill:#000000;fill-opacity:1;stroke:none"
   id="text4854"
   transform="translate(-185.41013,-112.33625)" />

<text
   xml:space="preserve"
   style="font-style:normal;font-variant:normal;font-weight:normal;font-stretch:normal;font-size:24px;line-height:1.25;font-family:Arial;-inkscape-font-specification:'Arial, Normal';font-variant-ligatures:normal;font-variant-caps:normal;font-variant-numeric:normal;font-feature-settings:normal;text-align:start;letter-spacing:0px;word-spacing:0px;writing-mode:lr-tb;text-anchor:start;fill:#222831;fill-opacity:0.94117647;stroke:none;"
   id="text846"
   y="147.76038"
   x="-1.8515625"><tspan
     sodipodi:role="line"
     id="tspan844"
     x="-1.8515625"
     y="147.76038">Download Historical Wind Data</tspan></text>

</svg>