<?xml version="1.0" encoding="UTF-8" standalone="no"?>
<!-- Generator: Adobe Illustrator 17.1.0, SVG Export Plug-In . SVG Version: 6.00 Build 0)  -->

<svg
   xmlns:dc="http://purl.org/dc/elements/1.1/"
   xmlns:cc="http://creativecommons.org/ns#"
   xmlns:rdf="http://www.w3.org/1999/02/22-rdf-syntax-ns#"
   xmlns:svg="http://www.w3.org/2000/svg"
   xmlns="http://www.w3.org/2000/svg"
   xmlns:sodipodi="http://sodipodi.sourceforge.net/DTD/sodipodi-0.dtd"
   xmlns:inkscape="http://www.inkscape.org/namespaces/inkscape"
   version="1.0"
   x="0px"
   y="0px"
   width="132.68254"
   height="119.08696"
   viewBox="0 0 132.68254 119.08696"
   xml:space="preserve"
   id="svg56"
   sodipodi:docname="wind_tu1.svg"
   inkscape:version="0.92.4 (5da689c313, 2019-01-14)"><metadata
   id="metadata62"><rdf:RDF><cc:Work
       rdf:about=""><dc:format>image/svg+xml</dc:format><dc:type
         rdf:resource="http://purl.org/dc/dcmitype/StillImage" /><dc:title></dc:title></cc:Work></rdf:RDF></metadata><defs
   id="defs60"><inkscape:path-effect
   effect="spiro"
   id="path-effect981"
   is_visible="true" /><inkscape:path-effect
   effect="spiro"
   id="path-effect977"
   is_visible="true" />
	
	
</defs><sodipodi:namedview
   pagecolor="#ffffff"
   bordercolor="#666666"
   borderopacity="1"
   objecttolerance="10"
   gridtolerance="10"
   guidetolerance="10"
   inkscape:pageopacity="0"
   inkscape:pageshadow="2"
   inkscape:window-width="958"
   inkscape:window-height="1008"
   id="namedview58"
   showgrid="false"
   inkscape:zoom="3.0341309"
   inkscape:cx="57.004825"
   inkscape:cy="74.816873"
   inkscape:window-x="-7"
   inkscape:window-y="0"
   inkscape:window-maximized="0"
   inkscape:current-layer="text846"
   showguides="true"
   inkscape:guide-bbox="true"
   fit-margin-top="0"
   fit-margin-left="0"
   fit-margin-right="0"
   fit-margin-bottom="0" />
<g
   id="Artboard"
   transform="translate(11.861297,9.0869747)">
</g>
<circle
   id="circle3"
   r="55"
   cy="-70.763206"
   cx="-59.750652"
   style="fill:#ff9600;fill-opacity:1"
   transform="rotate(173.96318)" /><g
   id="g53"
   style="stroke:#a8a8a8;stroke-opacity:1"
   transform="matrix(1.2845503,0,0,1.2845503,-3.2058007,-6.2560832)">
		<g
   id="g7"
   style="stroke:#a8a8a8;stroke-opacity:1">
			<path
   inkscape:connector-curvature="0"
   id="path5"
   d="M 57.645,49.979 C 56.939,50.607 56.019,51 55,51 53.981,51 53.061,50.607 52.355,49.979 L 47,83 h 16 z"
   style="fill:#e2e4e5;stroke:#a8a8a8;stroke-opacity:1" />
		</g>
		<g
   id="g11"
   style="stroke:#a8a8a8;stroke-opacity:1">
			<path
   inkscape:connector-curvature="0"
   id="path9"
   d="m 55,51 c -1.019,0 -1.939,-0.393 -2.645,-1.021 L 47,83 h 8 z"
   style="fill:#ffffff;stroke:#a8a8a8;stroke-opacity:1" />
		</g>
		<g
   id="g15"
   style="stroke:#a8a8a8;stroke-opacity:1">
			<path
   inkscape:connector-curvature="0"
   id="path13"
   d="m 58.998,47 c 2.086,-8.035 -0.053,-20.028 -3.582,-23.274 -0.36,-0.331 -0.821,-0.525 -1.288,-0.381 -0.467,0.144 -0.802,0.554 -0.849,1.041 L 51.077,47 Z"
   style="fill:#ffffff;stroke:#a8a8a8;stroke-opacity:1" />
		</g>
		<g
   id="g19"
   style="stroke:#a8a8a8;stroke-opacity:1">
			<path
   inkscape:connector-curvature="0"
   id="path17"
   d="m 53.071,50.502 c 6.031,5.704 17.568,9.617 22.114,8.091 0.463,-0.155 0.856,-0.466 0.955,-0.944 0.099,-0.478 -0.099,-0.97 -0.502,-1.246 L 56.893,43.563 Z"
   style="fill:#ffffff;stroke:#a8a8a8;stroke-opacity:1" />
		</g>
		<g
   id="g23"
   style="stroke:#a8a8a8;stroke-opacity:1">
			<path
   inkscape:connector-curvature="0"
   id="path21"
   d="m 52.863,43.621 c -7.906,2.531 -16.899,10.748 -17.757,15.466 -0.087,0.481 -0.005,0.975 0.366,1.292 0.371,0.318 0.897,0.381 1.333,0.161 L 57.096,50.316 Z"
   style="fill:#ffffff;stroke:#a8a8a8;stroke-opacity:1" />
		</g>
		<g
   id="g27"
   style="stroke:#a8a8a8;stroke-opacity:1">
			<path
   inkscape:connector-curvature="0"
   id="path25"
   d="M 71,87 H 39 c 0,-2.209 1.791,-4 4,-4 h 24 c 2.209,0 4,1.791 4,4 z"
   style="fill:#ffffff;stroke:#a8a8a8;stroke-opacity:1" />
		</g>
		<g
   id="g31"
   style="stroke:#a8a8a8;stroke-opacity:1">
			<path
   inkscape:connector-curvature="0"
   id="path29"
   d="M 45.2,36.838 C 45.2,39.141 43.341,41 41.037,41 H 27.163 C 24.859,41 23,39.141 23,36.838 c 0,-2.843 2.775,-4.149 4.301,-4.149 0.638,-3.177 3.441,-5.564 6.799,-5.564 3.358,0 6.161,2.386 6.799,5.564 1.526,0 4.301,1.307 4.301,4.149 z"
   style="fill:#f0f1f1;stroke:#a8a8a8;stroke-opacity:1" />
		</g>
		<g
   id="g35"
   style="stroke:#a8a8a8;stroke-opacity:1">
			<path
   inkscape:connector-curvature="0"
   id="path33"
   d="M 87,42.838 C 87,45.141 85.141,47 82.837,47 H 68.962 C 66.659,47 64.8,45.141 64.8,42.838 c 0,-2.843 2.775,-4.149 4.301,-4.149 0.638,-3.177 3.441,-5.564 6.799,-5.564 3.358,0 6.16,2.386 6.799,5.564 1.526,0 4.301,1.307 4.301,4.149 z"
   style="fill:#f0f1f1;stroke:#a8a8a8;stroke-opacity:1" />
		</g>
		<g
   id="g39"
   style="stroke:#a8a8a8;stroke-opacity:1">
			<path
   inkscape:connector-curvature="0"
   id="path37"
   d="m 34.1,27.125 c -3.358,0 -6.161,2.386 -6.799,5.564 -1.526,0 -4.301,1.305 -4.301,4.148 0,2.26 1.793,4.082 4.037,4.15 L 38.918,29.106 C 37.669,27.89 35.98,27.125 34.1,27.125 Z"
   style="fill:#ffffff;stroke:#a8a8a8;stroke-opacity:1" />
		</g>
		<g
   id="g43"
   style="stroke:#a8a8a8;stroke-opacity:1">
			<path
   inkscape:connector-curvature="0"
   id="path41"
   d="m 75.9,33.138 c -3.358,0 -6.161,2.386 -6.799,5.564 -1.526,0 -4.301,1.305 -4.301,4.148 0,2.26 1.793,4.082 4.037,4.15 L 80.718,35.119 C 79.469,33.903 77.78,33.138 75.9,33.138 Z"
   style="fill:#ffffff;stroke:#a8a8a8;stroke-opacity:1" />
		</g>
		<g
   id="g47"
   style="stroke:#a8a8a8;stroke-opacity:1">
			<circle
   id="circle45"
   r="4"
   cy="47"
   cx="55"
   style="fill:#5b5c5f;stroke:#a8a8a8;stroke-opacity:1" />
		</g>
		<g
   id="g51"
   style="stroke:#a8a8a8;stroke-opacity:1">
			<path
   inkscape:connector-curvature="0"
   id="path49"
   d="m 55,43 c -2.209,0 -4,1.791 -4,4 0,1.111 0.454,2.115 1.185,2.839 l 5.654,-5.654 C 57.115,43.454 56.111,43 55,43 Z"
   style="fill:#9e9fa0;stroke:#a8a8a8;stroke-opacity:1" />
		</g>
	</g>
<g
   aria-label="Download Historical Wind Data"
   style="font-style:normal;font-variant:normal;font-weight:normal;font-stretch:normal;font-size:13.33333302px;line-height:1.25;font-family:Arial;-inkscape-font-specification:'Arial, Normal';font-variant-ligatures:normal;font-variant-caps:normal;font-variant-numeric:normal;font-feature-settings:normal;text-align:start;letter-spacing:0px;word-spacing:0px;writing-mode:lr-tb;text-anchor:start;fill:#000000;fill-opacity:1;stroke:none"
   id="text4854"
   transform="translate(-282.58817,-103.24928)" />

<g
   aria-label="Download Historical Wind Data"
   style="font-style:normal;font-variant:normal;font-weight:normal;font-stretch:normal;font-size:13.33333302px;line-height:1.25;font-family:Arial;-inkscape-font-specification:'Arial, Normal';font-variant-ligatures:normal;font-variant-caps:normal;font-variant-numeric:normal;font-feature-settings:normal;text-align:start;letter-spacing:0px;word-spacing:0px;writing-mode:lr-tb;text-anchor:start;fill:#ff9600;fill-opacity:1;stroke:none"
   id="text846"
   transform="matrix(1.0307788,0,0,1,-0.30289584,-0.92954826)"><path
     d="m 10.353155,69.782089 -9.54259756,0.1787 -0.0615576,-3.287184 q -0.0208443,-1.113086 0.10487984,-1.701481 0.17341002,-0.823703 0.65726622,-1.412293 0.623769,-0.767022 1.61274,-1.156701 0.9823398,-0.396066 2.2581578,-0.419957 1.087049,-0.02036 1.9314994,0.21778 0.8444505,0.238137 1.4051746,0.624842 0.5542148,0.386826 0.8820677,0.85603 0.3212217,0.462817 0.4965086,1.130225 0.175166,0.660899 0.191378,1.526632 z M 9.2034025,68.540378 9.1652489,66.502975 Q 9.147574,65.55913 8.961828,65.02866 8.7759602,64.491682 8.4510328,64.1787 7.993482,63.737971 7.233774,63.504758 6.4674348,63.265159 5.3868951,63.285393 q -1.4971333,0.02804 -2.28851,0.537735 -0.7980079,0.50331 -1.0582327,1.211432 -0.1857703,0.51138 -0.1646823,1.637485 l 0.037544,2.004857 z"
     style="font-style:normal;font-variant:normal;font-weight:normal;font-stretch:normal;font-size:13.33333302px;font-family:Arial;-inkscape-font-specification:'Arial, Normal';font-variant-ligatures:normal;font-variant-caps:normal;font-variant-numeric:normal;font-feature-settings:normal;text-align:start;writing-mode:lr-tb;text-anchor:start;fill:#ff9600;fill-opacity:1"
     id="path854"
     inkscape:connector-curvature="0" /><path
     d="M 6.9118074,60.25557 Q 5.0091047,59.994184 4.2385402,58.810591 3.5988485,57.822409 3.7734011,56.55179 q 0.1940457,-1.412515 1.2459841,-2.181451 1.0454885,-0.769822 2.677298,-0.54565 1.3222171,0.181641 2.0283629,0.686085 0.7005819,0.497109 1.0152669,1.315783 0.315572,0.812225 0.19241,1.708753 -0.19759,1.438314 -1.2421923,2.201686 -1.0437165,0.756923 -2.7787233,0.518574 z M 7.0757273,59.06235 Q 8.3914946,59.243105 9.128237,58.759447 9.8585296,58.274902 9.9781468,57.404174 10.096878,56.539895 9.5178532,55.875482 8.9388283,55.211069 7.5908118,55.025884 6.3201934,54.851331 5.5890147,55.342325 4.8522723,55.825984 4.7344272,56.683812 4.6148099,57.554541 5.187385,58.218068 5.75996,58.881595 7.0757273,59.06235 Z"
     style="font-style:normal;font-variant:normal;font-weight:normal;font-stretch:normal;font-size:13.33333302px;font-family:Arial;-inkscape-font-specification:'Arial, Normal';font-variant-ligatures:normal;font-variant-caps:normal;font-variant-numeric:normal;font-feature-settings:normal;text-align:start;writing-mode:lr-tb;text-anchor:start;fill:#ff9600;fill-opacity:1"
     id="path856"
     inkscape:connector-curvature="0" /><path
     d="m 11.827801,51.713262 -7.2305095,0.03099 0.3493913,-1.159437 4.1386146,0.09802 1.5395886,0.03557 q -0.09846,-0.05687 -1.2618299,-0.754225 l -3.5598009,-2.221862 0.347513,-1.153204 4.1385308,0.165992 1.364965,0.05095 -1.163289,-0.765327 -3.4855129,-2.287871 0.3287285,-1.090869 5.9963694,4.064446 -0.35127,1.165671 -4.281986,-0.141226 -1.2052862,-0.08442 4.6889312,2.874902 z"
     style="font-style:normal;font-variant:normal;font-weight:normal;font-stretch:normal;font-size:13.33333302px;font-family:Arial;-inkscape-font-specification:'Arial, Normal';font-variant-ligatures:normal;font-variant-caps:normal;font-variant-numeric:normal;font-feature-settings:normal;text-align:start;writing-mode:lr-tb;text-anchor:start;fill:#ff9600;fill-opacity:1"
     id="path858"
     inkscape:connector-curvature="0" /><path
     d="m 14.454432,43.774305 -6.2309888,-2.996504 0.4570938,-0.95049 0.8859504,0.426057 q -0.6966404,-1.180239 -0.073074,-2.476895 0.2708704,-0.563254 0.7019486,-0.933876 0.428032,-0.379312 0.869459,-0.455993 0.441427,-0.07668 0.938348,0.0467 0.321577,0.08241 1.05498,0.435102 l 3.831295,1.842483 -0.507882,1.0561 -3.790225,-1.822732 q -0.645394,-0.310373 -1.021477,-0.339526 -0.38195,-0.03197 -0.722066,0.194566 -0.343161,0.217851 -0.546314,0.640291 -0.3244798,0.67473 -0.133184,1.373551 0.194117,0.692954 1.39103,1.268553 l 3.402988,1.636509 z"
     style="font-style:normal;font-variant:normal;font-weight:normal;font-stretch:normal;font-size:13.33333302px;font-family:Arial;-inkscape-font-specification:'Arial, Normal';font-variant-ligatures:normal;font-variant-caps:normal;font-variant-numeric:normal;font-feature-settings:normal;text-align:start;writing-mode:lr-tb;text-anchor:start;fill:#ff9600;fill-opacity:1"
     id="path860"
     inkscape:connector-curvature="0" /><path
     d="m 17.824814,37.193952 -8.17373,-4.927802 0.605051,-1.003596 8.17373,4.927802 z"
     style="font-style:normal;font-variant:normal;font-weight:normal;font-stretch:normal;font-size:13.33333302px;font-family:Arial;-inkscape-font-specification:'Arial, Normal';font-variant-ligatures:normal;font-variant-caps:normal;font-variant-numeric:normal;font-feature-settings:normal;text-align:start;writing-mode:lr-tb;text-anchor:start;fill:#ff9600;fill-opacity:1"
     id="path862"
     inkscape:connector-curvature="0" /><path
     d="m 16.315648,32.909798 q -1.544479,-1.141571 -1.653288,-2.549699 -0.08764,-1.173895 0.674699,-2.205293 0.847471,-1.146579 2.139279,-1.317076 1.286573,-0.174366 2.61116,0.804676 1.073282,0.793295 1.451151,1.574526 0.376502,0.772125 0.260183,1.64145 -0.11245,0.864088 -0.650342,1.591826 -0.86295,1.167522 -2.145653,1.336652 -1.278833,0.163895 -2.687189,-0.877062 z m 0.7159,-0.968572 q 1.068047,0.789425 1.946477,0.718176 0.873193,-0.07512 1.395607,-0.781914 0.518544,-0.70156 0.328927,-1.562234 -0.189617,-0.860675 -1.283842,-1.669448 -1.031398,-0.762338 -1.908461,-0.681983 -0.87843,0.07125 -1.393104,0.767573 -0.522414,0.706796 -0.338032,1.5636 0.184382,0.856805 1.252428,1.64623 z"
     style="font-style:normal;font-variant:normal;font-weight:normal;font-stretch:normal;font-size:13.33333302px;font-family:Arial;-inkscape-font-specification:'Arial, Normal';font-variant-ligatures:normal;font-variant-caps:normal;font-variant-numeric:normal;font-feature-settings:normal;text-align:start;writing-mode:lr-tb;text-anchor:start;fill:#ff9600;fill-opacity:1"
     id="path864"
     inkscape:connector-curvature="0" /><path
     d="m 26.394513,24.881982 q -0.0565,0.852584 -0.314801,1.445708 -0.253763,0.588453 -0.734501,1.083565 -0.79367,0.817401 -1.617007,0.870966 -0.828009,0.04903 -1.449233,-0.55416 -0.364328,-0.35375 -0.504529,-0.807487 -0.140337,-0.462943 -0.06399,-0.906057 0.08088,-0.447785 0.314002,-0.874792 0.174977,-0.31105 0.599528,-0.869791 0.867243,-1.136165 1.166224,-1.780533 -0.168287,-0.172475 -0.214996,-0.217828 -0.513795,-0.498878 -0.955282,-0.464751 -0.597855,0.04564 -1.21465,0.680877 -0.575978,0.5932 -0.642439,1.082209 -0.0666,0.479803 0.329687,1.127742 l -0.910305,0.713226 q -0.418962,-0.624585 -0.491812,-1.194415 -0.07752,-0.574365 0.221323,-1.22794 0.294174,-0.658109 0.915504,-1.298018 0.616795,-0.635237 1.151759,-0.887133 0.534965,-0.251895 0.945247,-0.216502 0.405612,0.03086 0.82382,0.291733 0.255677,0.166584 0.816181,0.710815 l 1.121007,1.088461 q 1.172387,1.13835 1.535223,1.390833 0.3627,0.243276 0.801821,0.361117 L 27.169665,25.30795 Q 26.78111,25.18476 26.394513,24.881982 Z m -1.945717,-1.75311 q -0.25762,0.639155 -1.015746,1.681632 -0.42868,0.59103 -0.543884,0.896595 -0.115205,0.305564 -0.04642,0.599211 0.06411,0.289111 0.283642,0.502268 0.336303,0.326539 0.805408,0.292005 0.473641,-0.03921 0.949843,-0.529646 0.471666,-0.48577 0.628833,-1.068197 0.152496,-0.586962 -0.04416,-1.12274 -0.153401,-0.412105 -0.709234,-0.951801 z"
     style="font-style:normal;font-variant:normal;font-weight:normal;font-stretch:normal;font-size:13.33333302px;font-family:Arial;-inkscape-font-specification:'Arial, Normal';font-variant-ligatures:normal;font-variant-caps:normal;font-variant-numeric:normal;font-feature-settings:normal;text-align:start;writing-mode:lr-tb;text-anchor:start;fill:#ff9600;fill-opacity:1"
     id="path866"
     inkscape:connector-curvature="0" /><path
     d="m 32.648882,20.698099 -0.538725,-0.686185 q 0.118013,1.215137 -0.885661,2.003123 -0.65034,0.510582 -1.479687,0.582302 -0.824227,0.0677 -1.628895,-0.335198 -0.803567,-0.41204 -1.458881,-1.246728 -0.639233,-0.814205 -0.886454,-1.687864 -0.251242,-0.87878 0.01416,-1.658269 0.265401,-0.77949 0.936224,-1.306153 0.491595,-0.385952 1.040488,-0.477525 0.544872,-0.09669 1.046871,0.0472 l -2.114695,-2.693534 0.916621,-0.719639 5.893807,7.507072 z m -5.044504,-0.426448 q 0.820148,1.044641 1.666589,1.216092 0.846441,0.17145 1.445573,-0.298928 0.604253,-0.4744 0.638206,-1.295662 0.03505,-0.830404 -0.760973,-1.84432 -0.876433,-1.116331 -1.716653,-1.300944 -0.84022,-0.184612 -1.470076,0.309889 -0.614495,0.48244 -0.635286,1.309924 -0.01567,0.823464 0.83262,1.903949 z"
     style="font-style:normal;font-variant:normal;font-weight:normal;font-stretch:normal;font-size:13.33333302px;font-family:Arial;-inkscape-font-specification:'Arial, Normal';font-variant-ligatures:normal;font-variant-caps:normal;font-variant-numeric:normal;font-feature-settings:normal;text-align:start;writing-mode:lr-tb;text-anchor:start;fill:#ff9600;fill-opacity:1"
     id="path868"
     inkscape:connector-curvature="0" /><path
     d="m 38.334357,16.903839 -4.085872,-8.6254706 1.141433,-0.5406953 1.677828,3.5419739 4.483362,-2.123762 -1.677828,-3.5419737 1.141434,-0.5406952 4.085872,8.6254709 -1.141433,0.540695 -1.925879,-4.065621 -4.483362,2.123762 1.925879,4.065621 z"
     style="font-style:normal;font-variant:normal;font-weight:normal;font-stretch:normal;font-size:13.33333302px;font-family:Arial;-inkscape-font-specification:'Arial, Normal';font-variant-ligatures:normal;font-variant-caps:normal;font-variant-numeric:normal;font-feature-settings:normal;text-align:start;writing-mode:lr-tb;text-anchor:start;fill:#ff9600;fill-opacity:1"
     id="path870"
     inkscape:connector-curvature="0" /><path
     d="M 44.361973,5.3649328 43.929162,4.088668 45.038957,3.7123105 45.471768,4.9885753 Z m 2.632411,7.7624032 -2.220509,-6.5477938 1.109796,-0.3763574 2.220509,6.5477932 z"
     style="font-style:normal;font-variant:normal;font-weight:normal;font-stretch:normal;font-size:13.33333302px;font-family:Arial;-inkscape-font-specification:'Arial, Normal';font-variant-ligatures:normal;font-variant-caps:normal;font-variant-numeric:normal;font-feature-settings:normal;text-align:start;writing-mode:lr-tb;text-anchor:start;fill:#ff9600;fill-opacity:1"
     id="path872"
     inkscape:connector-curvature="0" /><path
     d="m 48.857489,10.277566 1.082719,-0.4515462 q 0.25985,0.6536712 0.777848,0.9093662 0.524322,0.254154 1.302324,0.06451 0.784327,-0.191183 1.08675,-0.599952 Q 53.408012,9.7848534 53.303169,9.3547385 53.20912,8.9689002 52.81992,8.8292328 52.548884,8.7344741 51.562031,8.7270851 50.232548,8.7161 49.690001,8.6071106 49.152238,8.4902541 48.800554,8.147112 q -0.3469,-0.3510091 -0.46716,-0.8443761 -0.109468,-0.4490905 4.31e-4,-0.8779411 0.114683,-0.4367176 0.407223,-0.776067 0.217864,-0.2608372 0.640902,-0.5046762 0.427821,-0.251706 0.952814,-0.3796751 0.790652,-0.1927247 1.440728,-0.1099457 0.6564,0.081237 1.036626,0.4040198 0.378685,0.3164574 0.645019,0.9417443 l -1.076236,0.4231616 q -0.20233,-0.5001664 -0.640115,-0.7017022 -0.43146,-0.2030776 -1.095608,-0.041189 -0.784327,0.1911828 -1.05635,0.532232 -0.272023,0.3410492 -0.187224,0.6889362 0.05396,0.2213826 0.236288,0.3645692 0.183867,0.1495118 0.510446,0.1972265 0.186199,0.021624 1.076633,0.045814 1.286748,0.028103 1.812019,0.1212003 0.530054,0.08523 0.897629,0.4110967 0.367576,0.3258663 0.509422,0.9077863 0.138761,0.5692697 -0.07313,1.1570025 -0.20711,0.579866 -0.765467,1.010813 -0.5599,0.424623 -1.350552,0.617347 -1.30932,0.319152 -2.131363,-0.05676 -0.815719,-0.377454 -1.266039,-1.400162 z"
     style="font-style:normal;font-variant:normal;font-weight:normal;font-stretch:normal;font-size:13.33333302px;font-family:Arial;-inkscape-font-specification:'Arial, Normal';font-variant-ligatures:normal;font-variant-caps:normal;font-variant-numeric:normal;font-feature-settings:normal;text-align:start;writing-mode:lr-tb;text-anchor:start;fill:#ff9600;fill-opacity:1"
     id="path874"
     inkscape:connector-curvature="0" /><path
     d="m 58.691376,9.3340888 0.317469,0.9997072 q -0.474478,0.174758 -0.860981,0.231356 -0.631288,0.09244 -1.008383,-0.05631 -0.377095,-0.148755 -0.565978,-0.450088 -0.189826,-0.3077753 -0.34264,-1.3513334 L 55.654508,4.7715298 54.804202,4.8960451 54.67214,3.9942048 55.522446,3.8696895 55.274359,2.175518 56.32555,1.3109623 l 0.349964,2.3898768 1.16595,-0.1707369 0.132062,0.9018403 -1.165951,0.170737 0.585788,4.0003059 q 0.07263,0.4960122 0.151362,0.6292403 0.08517,0.1322848 0.232709,0.1962178 0.153981,0.06299 0.411649,0.025258 0.193252,-0.028299 0.502293,-0.1196127 z"
     style="font-style:normal;font-variant:normal;font-weight:normal;font-stretch:normal;font-size:13.33333302px;font-family:Arial;-inkscape-font-specification:'Arial, Normal';font-variant-ligatures:normal;font-variant-caps:normal;font-variant-numeric:normal;font-feature-settings:normal;text-align:start;writing-mode:lr-tb;text-anchor:start;fill:#ff9600;fill-opacity:1"
     id="path876"
     inkscape:connector-curvature="0" /><path
     d="m 59.380994,6.7665584 q -0.0879,-1.9185603 0.936379,-2.8909371 0.855832,-0.8082454 2.13704,-0.8669446 1.424288,-0.065254 2.371194,0.8298459 0.946609,0.8885968 1.021994,2.5340062 0.06108,1.3332369 -0.30698,2.1191349 -0.361857,0.7790964 -1.109913,1.2369899 -0.741553,0.4575954 -1.645553,0.4990124 -1.450301,0.06645 -2.390406,-0.822448 -0.933602,-0.8891927 -1.013755,-2.6386596 z m 1.203165,-0.055124 q 0.06079,1.3267332 0.669998,1.9635809 0.608914,0.6303441 1.486899,0.5901188 0.871482,-0.039927 1.419909,-0.7298129 Q 64.709393,7.845436 64.647118,6.4861848 64.588419,5.2049767 63.973001,4.5749305 63.363788,3.9380829 62.49881,3.9777123 61.620825,4.0179376 61.0721,4.7013196 60.523374,5.3847015 60.584159,6.7114344 Z"
     style="font-style:normal;font-variant:normal;font-weight:normal;font-stretch:normal;font-size:13.33333302px;font-family:Arial;-inkscape-font-specification:'Arial, Normal';font-variant-ligatures:normal;font-variant-caps:normal;font-variant-numeric:normal;font-feature-settings:normal;text-align:start;writing-mode:lr-tb;text-anchor:start;fill:#ff9600;fill-opacity:1"
     id="path878"
     inkscape:connector-curvature="0" /><path
     d="m 67.380361,10.032755 0.426967,-6.9008668 1.052674,0.06513 -0.06473,1.0461766 q 0.448306,-0.7093465 0.800675,-0.9223681 0.358867,-0.2126196 0.76824,-0.1872911 0.591317,0.036586 1.17881,0.4512608 L 71.072983,4.6450349 Q 70.659795,4.3650786 70.230928,4.338544 69.847546,4.3148236 69.527667,4.5298554 69.20819,4.7383892 69.052902,5.1397219 68.819366,5.7514678 68.773534,6.4922388 L 68.55,10.105122 Z"
     style="font-style:normal;font-variant:normal;font-weight:normal;font-stretch:normal;font-size:13.33333302px;font-family:Arial;-inkscape-font-specification:'Arial, Normal';font-variant-ligatures:normal;font-variant-caps:normal;font-variant-numeric:normal;font-feature-settings:normal;text-align:start;writing-mode:lr-tb;text-anchor:start;fill:#ff9600;fill-opacity:1"
     id="path880"
     inkscape:connector-curvature="0" /><path
     d="M 72.897146,2.2659018 73.07132,0.92954826 74.233366,1.0810037 74.059192,2.4173573 Z m -1.059347,8.1278702 0.893587,-6.8560748 1.162047,0.1514555 -0.893587,6.8560743 z"
     style="font-style:normal;font-variant:normal;font-weight:normal;font-stretch:normal;font-size:13.33333302px;font-family:Arial;-inkscape-font-specification:'Arial, Normal';font-variant-ligatures:normal;font-variant-caps:normal;font-variant-numeric:normal;font-feature-settings:normal;text-align:start;writing-mode:lr-tb;text-anchor:start;fill:#ff9600;fill-opacity:1"
     id="path882"
     inkscape:connector-curvature="0" /><path
     d="m 79.731421,9.2756763 1.092737,0.3952758 q -0.441858,1.1224329 -1.350989,1.6146459 -0.901368,0.487263 -2.007402,0.242409 -1.38572,-0.306772 -2.031313,-1.396556 -0.637829,-1.0947329 -0.263512,-2.785566 0.24204,-1.0933206 0.785892,-1.8331002 0.543851,-0.7397795 1.371268,-0.9833603 0.835181,-0.2485301 1.706024,-0.055743 1.099677,0.2434472 1.675059,0.9576135 0.576789,0.7078098 0.547281,1.7748322 L 80.106081,7.1314921 Q 80.097739,6.4161647 79.766912,5.9828515 79.442441,5.5509456 78.870354,5.4242968 78.005868,5.2329164 77.327658,5.7362421 q -0.676803,0.4969693 -0.973724,1.838194 -0.301143,1.3602942 0.08359,2.0922674 0.384735,0.7319735 1.223795,0.9177245 0.673791,0.149164 1.216572,-0.164097 0.542781,-0.313262 0.853528,-1.1446547 z"
     style="font-style:normal;font-variant:normal;font-weight:normal;font-stretch:normal;font-size:13.33333302px;font-family:Arial;-inkscape-font-specification:'Arial, Normal';font-variant-ligatures:normal;font-variant-caps:normal;font-variant-numeric:normal;font-feature-settings:normal;text-align:start;writing-mode:lr-tb;text-anchor:start;fill:#ff9600;fill-opacity:1"
     id="path884"
     inkscape:connector-curvature="0" /><path
     d="m 85.805558,13.033751 q -0.800355,0.299204 -1.447226,0.307747 -0.640747,0.01076 -1.28978,-0.223766 -1.071516,-0.387182 -1.459013,-1.115605 -0.385285,-0.734546 -0.09103,-1.548898 0.172572,-0.4775898 0.528474,-0.7920221 0.364236,-0.3183427 0.799531,-0.4310269 0.441417,-0.1104717 0.926519,-0.073633 0.355491,0.03154 1.039408,0.1886756 1.392327,0.3231218 2.10264,0.3305801 0.08798,-0.2243366 0.110109,-0.2855661 0.243372,-0.6735244 0.03066,-1.061893 -0.287522,-0.5261603 -1.120243,-0.8270562 -0.777615,-0.2809837 -1.250676,-0.1404117 -0.464725,0.1366615 -0.8923,0.7643931 l -1.02454,-0.5363455 q 0.39696,-0.6387939 0.886383,-0.9395915 0.491635,-0.3069206 1.210283,-0.3033728 0.72086,-0.00258 1.559704,0.3005332 0.832721,0.300896 1.282373,0.6848903 0.449651,0.3839943 0.586158,0.7725176 0.13872,0.3824003 0.07296,0.870898 -0.04667,0.3015679 -0.312163,1.0363219 l -0.530993,1.469508 q -0.55533,1.53686 -0.636213,1.971434 -0.07255,0.430665 6.72e-4,0.879388 L 85.73615,13.915506 q -0.04754,-0.404834 0.06941,-0.881755 z m 0.797569,-2.494612 q -0.688548,0.02809 -1.950595,-0.234106 -0.715047,-0.147617 -1.040952,-0.126932 -0.325905,0.02069 -0.565265,0.204169 -0.237148,0.17736 -0.341134,0.465139 -0.159298,0.440852 0.06514,0.854227 0.230564,0.415587 0.873473,0.647897 0.636787,0.230097 1.232307,0.133774 0.597732,-0.102446 1.005189,-0.502085 0.312527,-0.309338 0.575811,-1.037969 z"
     style="font-style:normal;font-variant:normal;font-weight:normal;font-stretch:normal;font-size:13.33333302px;font-family:Arial;-inkscape-font-specification:'Arial, Normal';font-variant-ligatures:normal;font-variant-caps:normal;font-variant-numeric:normal;font-feature-settings:normal;text-align:start;writing-mode:lr-tb;text-anchor:start;fill:#ff9600;fill-opacity:1"
     id="path886"
     inkscape:connector-curvature="0" /><path
     d="M 88.160208,14.989557 92.23786,6.3601969 93.2974,6.8608636 89.219748,15.490224 Z"
     style="font-style:normal;font-variant:normal;font-weight:normal;font-stretch:normal;font-size:13.33333302px;font-family:Arial;-inkscape-font-specification:'Arial, Normal';font-variant-ligatures:normal;font-variant-caps:normal;font-variant-numeric:normal;font-feature-settings:normal;text-align:start;writing-mode:lr-tb;text-anchor:start;fill:#ff9600;fill-opacity:1"
     id="path888"
     inkscape:connector-curvature="0" /><path
     d="m 95.65779,19.027382 3.752831,-9.1336285 1.031999,0.7832605 -2.626025,5.861375 q -0.407641,0.924767 -0.859269,1.799802 1.215366,-0.998273 1.408921,-1.145605 l 5.343483,-4.035905 1.21351,0.92102 -1.83146,4.674495 q -0.67665,1.742252 -1.45158,3.140185 0.6923,-0.610633 1.63414,-1.366976 l 4.90046,-3.979844 1.01125,0.767516 -7.85488,6.020268 -0.96977,-0.736028 2.79405,-7.008871 q 0.34879,-0.879529 0.43844,-1.07303 -0.51681,0.433248 -0.89999,0.722728 l -6.009302,4.568562 z"
     style="font-style:normal;font-variant:normal;font-weight:normal;font-stretch:normal;font-size:13.33333302px;font-family:Arial;-inkscape-font-specification:'Arial, Normal';font-variant-ligatures:normal;font-variant-caps:normal;font-variant-numeric:normal;font-feature-settings:normal;text-align:start;writing-mode:lr-tb;text-anchor:start;fill:#ff9600;fill-opacity:1"
     id="path890"
     inkscape:connector-curvature="0" /><path
     d="m 109.76179,20.122518 0.95707,-0.948779 0.82503,0.83224 -0.95708,0.948779 z m -5.82106,5.770593 4.91022,-4.867649 0.82502,0.832241 -4.91022,4.867649 z"
     style="font-style:normal;font-variant:normal;font-weight:normal;font-stretch:normal;font-size:13.33333302px;font-family:Arial;-inkscape-font-specification:'Arial, Normal';font-variant-ligatures:normal;font-variant-caps:normal;font-variant-numeric:normal;font-feature-settings:normal;text-align:start;writing-mode:lr-tb;text-anchor:start;fill:#ff9600;fill-opacity:1"
     id="path892"
     inkscape:connector-curvature="0" /><path
     d="m 106.04536,27.98478 5.34624,-4.384297 0.66879,0.815527 -0.76016,0.62338 q 1.36399,-0.133468 2.27635,0.979072 0.39632,0.483275 0.5504,1.030497 0.16323,0.548127 0.0465,0.980678 -0.11678,0.432552 -0.43835,0.83098 -0.21043,0.256758 -0.83969,0.772801 l -3.28728,2.695805 -0.7431,-0.906141 3.25204,-2.666907 q 0.55375,-0.454118 0.7389,-0.782764 0.19018,-0.332775 0.12834,-0.736725 -0.0527,-0.403043 -0.34992,-0.765499 -0.47475,-0.578924 -1.18903,-0.700421 -0.71014,-0.116463 -1.7371,0.725718 l -2.91979,2.394437 z"
     style="font-style:normal;font-variant:normal;font-weight:normal;font-stretch:normal;font-size:13.33333302px;font-family:Arial;-inkscape-font-specification:'Arial, Normal';font-variant-ligatures:normal;font-variant-caps:normal;font-variant-numeric:normal;font-feature-settings:normal;text-align:start;writing-mode:lr-tb;text-anchor:start;fill:#ff9600;fill-opacity:1"
     id="path894"
     inkscape:connector-curvature="0" /><path
     d="m 113.01332,37.62147 0.74296,-0.457263 q -1.22068,-0.02083 -1.88951,-1.107541 -0.43338,-0.704146 -0.4104,-1.536271 0.0264,-0.826581 0.51812,-1.580255 0.50069,-0.751543 1.40443,-1.307766 0.88157,-0.542574 1.77766,-0.688919 0.90164,-0.149758 1.64592,0.202498 0.74428,0.352255 1.19131,1.078578 0.32759,0.532268 0.3562,1.088011 0.0341,0.55233 -0.16585,1.034727 l 2.91638,-1.79493 0.61082,0.992457 -8.12817,5.002598 z m 0.9969,-4.963372 q -1.13107,0.696132 -1.39759,1.517609 -0.26653,0.821476 0.13273,1.470177 0.40266,0.654246 1.21475,0.781299 0.82104,0.129186 1.91884,-0.546472 1.20869,-0.743906 1.48758,-1.557706 0.2789,-0.813801 -0.14083,-1.495768 -0.40949,-0.665335 -1.22925,-0.780019 -0.81635,-0.10914 -1.98623,0.61088 z"
     style="font-style:normal;font-variant:normal;font-weight:normal;font-stretch:normal;font-size:13.33333302px;font-family:Arial;-inkscape-font-specification:'Arial, Normal';font-variant-ligatures:normal;font-variant-caps:normal;font-variant-numeric:normal;font-feature-settings:normal;text-align:start;writing-mode:lr-tb;text-anchor:start;fill:#ff9600;fill-opacity:1"
     id="path896"
     inkscape:connector-curvature="0" /><path
     d="m 116.12147,43.66568 9.03564,-3.074136 1.05896,3.11255 q 0.35858,1.053952 0.41788,1.6527 0.0855,0.837409 -0.19632,1.545326 -0.36077,0.920463 -1.18426,1.592615 -0.81522,0.676218 -2.02326,1.087221 -1.0293,0.350192 -1.90617,0.380324 -0.87687,0.03013 -1.52867,-0.167598 -0.64565,-0.199828 -1.10074,-0.54701 -0.44682,-0.343115 -0.8169,-0.925528 -0.36797,-0.57625 -0.64687,-1.395991 z m 1.47309,0.832939 0.65635,1.929165 q 0.30406,0.893702 0.64242,1.342488 0.34046,0.45495 0.74522,0.654209 0.56997,0.280589 1.36462,0.271554 0.8029,-0.005 1.82604,-0.353063 1.4176,-0.4823 2.01633,-1.208648 0.607,-0.722283 0.6394,-1.476009 0.0213,-0.543659 -0.34144,-1.609938 l -0.64586,-1.898348 z"
     style="font-style:normal;font-variant:normal;font-weight:normal;font-stretch:normal;font-size:13.33333302px;font-family:Arial;-inkscape-font-specification:'Arial, Normal';font-variant-ligatures:normal;font-variant-caps:normal;font-variant-numeric:normal;font-feature-settings:normal;text-align:start;writing-mode:lr-tb;text-anchor:start;fill:#ff9600;fill-opacity:1"
     id="path898"
     inkscape:connector-curvature="0" /><path
     d="m 120.5799,57.015718 q -0.65713,-0.546151 -0.98574,-1.103401 -0.3275,-0.550836 -0.4462,-1.230654 -0.19597,-1.122342 0.2439,-1.820387 0.44628,-0.699165 1.29926,-0.848105 0.50025,-0.08735 0.9499,0.06545 0.45718,0.158091 0.77114,0.47998 0.31507,0.328302 0.52397,0.767668 0.14914,0.324232 0.35233,0.995905 0.41088,1.369001 0.7571,1.989265 0.23842,-0.03502 0.30255,-0.04622 0.70547,-0.123184 0.93696,-0.50066 0.31395,-0.510834 0.16165,-1.383054 -0.14222,-0.814499 -0.49913,-1.155322 -0.34938,-0.33553 -1.10657,-0.394975 l -0.0432,-1.155631 q 0.75159,0.02738 1.2557,0.302844 0.51053,0.274347 0.86429,0.899904 0.36017,0.624438 0.51359,1.503071 0.1523,0.87222 0.0423,1.453192 -0.11004,0.580973 -0.3795,0.892381 -0.26305,0.310288 -0.71972,0.495771 -0.28494,0.109233 -1.05455,0.243615 l -1.53921,0.268764 q -1.60976,0.281082 -2.02713,0.426659 -0.40985,0.150871 -0.76299,0.437237 L 119.78006,57.3933 q 0.32779,-0.242286 0.79984,-0.377582 z m 2.56138,-0.54638 q -0.36628,-0.583718 -0.76535,-1.809384 -0.22692,-0.693968 -0.4067,-0.966587 -0.17978,-0.272618 -0.4579,-0.389279 -0.2717,-0.11778 -0.57313,-0.06515 -0.46176,0.08063 -0.70913,0.480704 -0.24625,0.406489 -0.12867,1.079894 0.11647,0.666992 0.49578,1.136083 0.38572,0.46797 0.93493,0.623211 0.42369,0.117677 1.18688,-0.01559 z"
     style="font-style:normal;font-variant:normal;font-weight:normal;font-stretch:normal;font-size:13.33333302px;font-family:Arial;-inkscape-font-specification:'Arial, Normal';font-variant-ligatures:normal;font-variant-caps:normal;font-variant-numeric:normal;font-feature-settings:normal;text-align:start;writing-mode:lr-tb;text-anchor:start;fill:#ff9600;fill-opacity:1"
     id="path900"
     inkscape:connector-curvature="0" /><path
     d="m 121.29386,62.531527 -1.02,0.244538 q -0.14009,-0.485847 -0.16866,-0.875425 -0.0467,-0.636312 0.1289,-1.001696 0.17556,-0.365383 0.48973,-0.53204 0.32067,-0.167133 1.37253,-0.244282 l 3.96721,-0.290974 -0.0629,-0.857073 0.90901,-0.06667 0.0629,0.857073 1.70765,-0.125247 0.78648,1.11081 -2.40889,0.17668 0.0862,1.175228 -0.90902,0.06667 -0.0862,-1.175229 -4.03213,0.295737 q -0.49996,0.03667 -0.63852,0.105583 -0.13809,0.07541 -0.21249,0.21795 -0.0739,0.149037 -0.0549,0.408756 0.0143,0.194789 0.0831,0.509611 z"
     style="font-style:normal;font-variant:normal;font-weight:normal;font-stretch:normal;font-size:13.33333302px;font-family:Arial;-inkscape-font-specification:'Arial, Normal';font-variant-ligatures:normal;font-variant-caps:normal;font-variant-numeric:normal;font-feature-settings:normal;text-align:start;writing-mode:lr-tb;text-anchor:start;fill:#ff9600;fill-opacity:1"
     id="path902"
     inkscape:connector-curvature="0" /><path
     d="m 121.06779,68.282273 q -0.53544,-0.665876 -0.74673,-1.277327 -0.21146,-0.604944 -0.19266,-1.294792 0.031,-1.1389 0.60089,-1.735576 0.57636,-0.5965 1.44192,-0.572911 0.50763,0.01383 0.91793,0.252965 0.41664,0.245816 0.66034,0.623689 0.24353,0.384381 0.36092,0.856504 0.0817,0.347407 0.14734,1.046069 0.13054,1.423355 0.34656,2.100064 0.24062,0.01307 0.3057,0.01484 0.71588,0.01951 1.01778,-0.304418 0.40923,-0.438233 0.43335,-1.323321 0.0225,-0.826516 -0.25952,-1.231485 -0.27571,-0.398284 -1.00597,-0.607058 l 0.18741,-1.141151 q 0.73115,0.176233 1.17044,0.546411 0.44581,0.370355 0.66816,1.053749 0.22886,0.683572 0.20456,1.575168 -0.0241,0.885088 -0.24745,1.432593 -0.22333,0.547504 -0.54932,0.799134 -0.31948,0.251806 -0.80391,0.34281 -0.30096,0.05041 -1.08192,0.02913 l -1.56192,-0.04257 q -1.63351,-0.04452 -2.0715,0.01519 -0.43165,0.06639 -0.83467,0.276844 l 0.0333,-1.223504 q 0.36942,-0.172292 0.85893,-0.211054 z m 2.61888,-0.02632 q -0.24294,-0.644878 -0.3904,-1.925412 -0.0844,-0.725226 -0.20644,-1.028141 -0.122,-0.302915 -0.37138,-0.472532 -0.24287,-0.16944 -0.54875,-0.177775 -0.46857,-0.01277 -0.79054,0.330149 -0.32213,0.349427 -0.34076,1.032767 -0.0184,0.676832 0.26005,1.211961 0.285,0.535306 0.7924,0.796621 0.39184,0.199551 1.16629,0.220657 z"
     style="font-style:normal;font-variant:normal;font-weight:normal;font-stretch:normal;font-size:13.33333302px;font-family:Arial;-inkscape-font-specification:'Arial, Normal';font-variant-ligatures:normal;font-variant-caps:normal;font-variant-numeric:normal;font-feature-settings:normal;text-align:start;writing-mode:lr-tb;text-anchor:start;fill:#ff9600;fill-opacity:1"
     id="path904"
     inkscape:connector-curvature="0" /></g></svg>